<?xml version="1.0" encoding="UTF-8" standalone="no"?><!DOCTYPE svg PUBLIC "-//W3C//DTD SVG 1.1//EN" "http://www.w3.org/Graphics/SVG/1.1/DTD/svg11.dtd"><svg width="100%" height="100%" viewBox="0 0 8000 4500" version="1.1" xmlns="http://www.w3.org/2000/svg" xmlns:xlink="http://www.w3.org/1999/xlink" xml:space="preserve" xmlns:serif="http://www.serif.com/" style="fill-rule:evenodd;clip-rule:evenodd;stroke-linecap:round;stroke-linejoin:round;stroke-miterlimit:1.5;"><ellipse cx="438.073" cy="351.469" rx="234.436" ry="239.9" style="fill:none;"/><clipPath id="_clip1"><ellipse cx="438.073" cy="351.469" rx="234.436" ry="239.9"/></clipPath><g clip-path="url(#_clip1)"><path d="M312.511,282.49c30.426,-130.71 145.378,-228.037 282.369,-228.037c160.194,0 290.251,133.089 290.251,297.016c-0,163.928 -130.057,297.016 -290.251,297.016c-137.984,0 -253.608,-98.742 -283.017,-230.883" style="fill:none;stroke:#6e00ff;stroke-width:26.44px;"/><path d="M538.07,417.602c-29.409,132.141 -145.033,230.883 -283.017,230.883c-160.194,0 -290.251,-133.088 -290.251,-297.016c0,-163.927 130.057,-297.016 290.251,-297.016c136.991,0 251.943,97.327 282.369,228.037" style="fill:none;stroke:#6e00ff;stroke-width:26.44px;"/><path d="M286.807,166.485l308.073,1.233" style="fill:none;stroke:#6e00ff;stroke-width:26.44px;"/><path d="M234.972,224.006l408.985,2.91" style="fill:none;stroke:#6e00ff;stroke-width:26.44px;"/><path d="M222.734,472.415l421.223,-2.968" style="fill:none;stroke:#6e00ff;stroke-width:26.44px;"/><path d="M268.377,529.86l326.503,-1.712" style="fill:none;stroke:#6e00ff;stroke-width:26.44px;"/><rect x="203.637" y="282.49" width="468.872" height="135.112" style="fill:none;stroke:#6e00ff;stroke-width:26.44px;"/><g><text x="284.934px" y="383.657px" style="font-family:'Inter-Medium', 'Inter';font-weight:500;font-size:118.022px;fill:#6e00ff;stroke:#6e00ff;stroke-width:4.17px;stroke-linecap:butt;stroke-miterlimit:2;">w</text><text x="389.393px" y="383.657px" style="font-family:'Inter-Medium', 'Inter';font-weight:500;font-size:118.022px;fill:#6e00ff;stroke:#6e00ff;stroke-width:4.17px;stroke-linecap:butt;stroke-miterlimit:2;">w</text><text x="493.851px" y="383.657px" style="font-family:'Inter-Medium', 'Inter';font-weight:500;font-size:118.022px;fill:#6e00ff;stroke:#6e00ff;stroke-width:4.17px;stroke-linecap:butt;stroke-miterlimit:2;">w</text></g></g><ellipse cx="438.073" cy="351.469" rx="234.436" ry="239.9" style="fill:none;stroke:#6e00ff;stroke-width:28.44px;"/><g><g><path d="M1300.03,165.298c-0,-8.114 -3.223,-15.896 -8.961,-21.633c-5.737,-5.738 -13.519,-8.961 -21.633,-8.961c-66.162,-0 -221.907,-0 -288.069,-0c-8.114,-0 -15.896,3.223 -21.633,8.961c-5.738,5.737 -8.961,13.519 -8.961,21.633c-0,81.211 -0,301.545 -0,382.755c-0,8.114 3.223,15.896 8.961,21.634c5.737,5.737 13.519,8.96 21.633,8.96c66.162,0 221.907,0 288.069,0c8.114,0 15.896,-3.223 21.633,-8.96c5.738,-5.738 8.961,-13.52 8.961,-21.634c-0,-81.21 -0,-301.544 -0,-382.755Z" style="fill:none;stroke:#6e00ff;stroke-width:32.44px;"/><path d="M1005.32,189.866c-0,-2.401 -1.949,-4.35 -4.35,-4.35l-16.848,-0c-2.401,-0 -4.35,1.949 -4.35,4.35l0,16.847c0,2.401 1.949,4.35 4.35,4.35l16.848,0c2.401,0 4.35,-1.949 4.35,-4.35l-0,-16.847Z" style="fill:#6e00ff;stroke:#6e00ff;stroke-width:3.86px;"/><path d="M1005.32,250.967c-0,-2.401 -1.949,-4.35 -4.35,-4.35l-16.848,-0c-2.401,-0 -4.35,1.949 -4.35,4.35l0,16.847c0,2.401 1.949,4.35 4.35,4.35l16.848,0c2.401,0 4.35,-1.949 4.35,-4.35l-0,-16.847Z" style="fill:#6e00ff;stroke:#6e00ff;stroke-width:3.86px;"/><path d="M1005.32,312.068c-0,-2.401 -1.949,-4.35 -4.35,-4.35l-16.848,-0c-2.401,-0 -4.35,1.949 -4.35,4.35l0,16.847c0,2.401 1.949,4.35 4.35,4.35l16.848,0c2.401,0 4.35,-1.949 4.35,-4.35l-0,-16.847Z" style="fill:#6e00ff;stroke:#6e00ff;stroke-width:3.86px;"/><path d="M1005.32,373.169c-0,-2.401 -1.949,-4.35 -4.35,-4.35l-16.848,-0c-2.401,-0 -4.35,1.949 -4.35,4.35l0,16.848c0,2.4 1.949,4.35 4.35,4.35l16.848,-0c2.401,-0 4.35,-1.95 4.35,-4.35l-0,-16.848Z" style="fill:#6e00ff;stroke:#6e00ff;stroke-width:3.86px;"/><path d="M1005.32,434.27c-0,-2.401 -1.949,-4.35 -4.35,-4.35l-16.848,-0c-2.401,-0 -4.35,1.949 -4.35,4.35l0,16.848c0,2.4 1.949,4.35 4.35,4.35l16.848,-0c2.401,-0 4.35,-1.95 4.35,-4.35l-0,-16.848Z" style="fill:#6e00ff;stroke:#6e00ff;stroke-width:3.86px;"/><path d="M1005.32,495.371c-0,-2.401 -1.949,-4.35 -4.35,-4.35l-16.848,0c-2.401,0 -4.35,1.949 -4.35,4.35l0,16.848c0,2.4 1.949,4.35 4.35,4.35l16.848,-0c2.401,-0 4.35,-1.95 4.35,-4.35l-0,-16.848Z" style="fill:#6e00ff;stroke:#6e00ff;stroke-width:3.86px;"/><path d="M1263.44,188.705c0,-1.76 -1.429,-3.189 -3.189,-3.189l-232.335,-0c-1.761,-0 -3.19,1.429 -3.19,3.189l0,19.169c0,1.76 1.429,3.189 3.19,3.189l232.335,0c1.76,0 3.189,-1.429 3.189,-3.189l0,-19.169Z" style="fill:#6e00ff;stroke:#6e00ff;stroke-width:4.15px;"/><path d="M1263.44,249.807c0,-1.761 -1.429,-3.19 -3.189,-3.19l-232.335,-0c-1.761,-0 -3.19,1.429 -3.19,3.19l0,19.168c0,1.76 1.429,3.189 3.19,3.189l232.335,0c1.76,0 3.189,-1.429 3.189,-3.189l0,-19.168Z" style="fill:#6e00ff;stroke:#6e00ff;stroke-width:4.15px;"/></g><path d="M1263.44,310.908c0,-1.761 -1.429,-3.19 -3.189,-3.19l-232.335,-0c-1.761,-0 -3.19,1.429 -3.19,3.19l0,19.168c0,1.76 1.429,3.189 3.19,3.189l232.335,0c1.76,0 3.189,-1.429 3.189,-3.189l0,-19.168Z" style="fill:#6e00ff;stroke:#6e00ff;stroke-width:4.15px;"/><path d="M1263.44,373.019c0,-1.761 -1.429,-3.19 -3.189,-3.19l-232.335,-0c-1.761,-0 -3.19,1.429 -3.19,3.19l0,19.168c0,1.76 1.429,3.189 3.19,3.189l232.335,0c1.76,0 3.189,-1.429 3.189,-3.189l0,-19.168Z" style="fill:#6e00ff;stroke:#6e00ff;stroke-width:4.15px;"/><path d="M1263.44,435.129c0,-1.76 -1.429,-3.189 -3.189,-3.189l-232.335,-0c-1.761,-0 -3.19,1.429 -3.19,3.189l0,19.169c0,1.76 1.429,3.189 3.19,3.189l232.335,0c1.76,0 3.189,-1.429 3.189,-3.189l0,-19.169Z" style="fill:#6e00ff;stroke:#6e00ff;stroke-width:4.15px;"/><path d="M1263.44,497.24c0,-1.76 -1.429,-3.189 -3.189,-3.189l-232.335,-0c-1.761,-0 -3.19,1.429 -3.19,3.189l0,19.169c0,1.76 1.429,3.189 3.19,3.189l232.335,0c1.76,0 3.189,-1.429 3.189,-3.189l0,-19.169Z" style="fill:#6e00ff;stroke:#6e00ff;stroke-width:4.15px;"/><path d="M1398.96,212.422c-2.152,-2.151 -6.096,-1.7 -8.803,1.007l-225.304,225.304c-2.707,2.707 -3.158,6.652 -1.007,8.803l-27.425,46.515l50.852,-23.088c2.152,2.152 6.096,1.701 8.804,-1.006l225.303,-225.304c2.708,-2.707 3.159,-6.652 1.007,-8.804l-23.427,-23.427Z" style="fill:#6e00ff;stroke:#fff;stroke-width:5.54px;"/></g><path d="M3502.44,475.764c0,21.867 17.891,39.757 39.758,39.757l516.845,0c21.866,0 39.757,-17.89 39.757,-39.757l0,-238.544l-596.36,-0l0,238.544Zm59.636,-99.393l238.544,-0c10.973,-0 19.879,8.905 19.879,19.878c-0,10.973 -8.906,19.879 -19.879,19.879l-238.544,-0c-10.973,-0 -19.878,-8.906 -19.878,-19.879c-0,-10.973 8.905,-19.878 19.878,-19.878Zm0,59.636l99.394,-0c10.973,-0 19.878,8.905 19.878,19.878c0,10.973 -8.905,19.879 -19.878,19.879l-99.394,-0c-10.973,-0 -19.878,-8.906 -19.878,-19.879c-0,-10.973 8.905,-19.878 19.878,-19.878Zm536.724,-278.302l0,19.879l-596.36,-0l0,-19.879c0,-21.866 17.891,-39.757 39.758,-39.757l516.845,-0c21.866,-0 39.757,17.891 39.757,39.757Z" style="fill:#6e00ff;fill-rule:nonzero;"/><path d="M2163.57,182.957c-2.572,9.708 -2.572,22.551 -2.572,44.738l0,226.142c0,26.342 0,39.512 4.304,49.9c5.738,13.854 16.744,24.859 30.596,30.597c10.39,4.305 23.561,4.305 49.903,4.305l339.21,0c26.343,0 39.513,0 49.904,-4.305c13.851,-5.738 24.858,-16.743 30.597,-30.597c4.302,-10.388 4.302,-23.558 4.302,-49.9l0,-226.142c0,-22.187 0,-35.03 -2.572,-44.738c-1.611,3.519 -3.977,6.762 -7.081,9.477l-188.912,165.299c-31.974,27.976 -79.712,27.976 -111.685,-0l-188.912,-165.299c-3.103,-2.715 -5.469,-5.958 -7.082,-9.477Z" style="fill:#323232;fill-opacity:0.1;fill-rule:nonzero;"/><path d="M2161,227.696c0,-26.342 0,-39.513 4.304,-49.902c5.738,-13.853 16.744,-24.859 30.596,-30.597c10.39,-4.303 23.561,-4.303 49.903,-4.303l339.21,-0c26.343,-0 39.513,-0 49.904,4.303c13.851,5.738 24.858,16.744 30.597,30.597c4.302,10.389 4.302,23.56 4.302,49.902l0,226.141c0,26.342 0,39.512 -4.302,49.903c-5.739,13.851 -16.746,24.859 -30.597,30.597c-10.391,4.302 -23.561,4.302 -49.904,4.302l-339.21,0c-26.342,0 -39.513,0 -49.903,-4.302c-13.852,-5.738 -24.858,-16.746 -30.596,-30.597c-4.304,-10.391 -4.304,-23.561 -4.304,-49.903l0,-226.141Z" style="fill:none;fill-rule:nonzero;stroke:#6e00ff;stroke-width:56.54px;stroke-linecap:butt;stroke-miterlimit:4;"/><path d="M2189.27,171.161l188.912,165.297c21.314,18.651 53.143,18.651 74.457,0l188.912,-165.297" style="fill:none;fill-rule:nonzero;stroke:#6e00ff;stroke-width:56.54px;stroke-miterlimit:4;"/><g><path d="M3334.54,128.509l-488.576,0c-17.317,0 -31.171,10.391 -31.171,27.708l-0,311.826c-0,13.854 13.854,27.708 27.708,27.708l492.039,-0c13.854,-0 27.708,-13.854 27.708,-27.708l-0,-311.77c-0,-17.373 -13.854,-27.764 -27.708,-27.764Zm-3.463,287.582l-481.649,-0l-0,-256.41l481.649,-0l-0,256.41Z" style="fill:#60f;fill-rule:nonzero;"/><path d="M2949.93,218.616c-0,17.205 13.966,31.171 31.171,31.171c17.206,0 31.172,-13.966 31.172,-31.171c-0,-17.206 -13.966,-31.172 -31.172,-31.172c-17.205,0 -31.171,13.966 -31.171,31.172Z" style="fill:#60f;fill-rule:nonzero;"/><rect x="3105.84" y="291.405" width="131.669" height="90.107" style="fill:#60f;fill-rule:nonzero;"/><rect x="3105.84" y="201.298" width="131.669" height="10.39" style="fill:#60f;fill-rule:nonzero;"/><rect x="3105.84" y="222.079" width="131.669" height="10.39" style="fill:#60f;fill-rule:nonzero;"/><rect x="2943" y="291.405" width="131.669" height="10.39" style="fill:#60f;fill-rule:nonzero;"/><rect x="2943" y="312.186" width="131.669" height="10.39" style="fill:#60f;fill-rule:nonzero;"/><rect x="2943" y="329.503" width="131.669" height="10.39" style="fill:#60f;fill-rule:nonzero;"/><rect x="2943" y="350.284" width="131.669" height="10.39" style="fill:#60f;fill-rule:nonzero;"/><rect x="2943" y="371.065" width="131.669" height="10.39" style="fill:#60f;fill-rule:nonzero;"/><path d="M3182.09,551.223l-38.099,-0l-6.927,-72.79l-97.033,0l-6.927,72.79l-38.099,-0c-13.854,-0 -24.244,17.317 -24.244,31.171l232.165,0c3.408,-10.335 -6.982,-31.171 -20.836,-31.171Z" style="fill:#60f;fill-rule:nonzero;"/></g><path d="M1543.54,492.673c3.933,23.758 24.574,41.877 49.447,41.877l300.73,-0c27.682,-0 50.121,-22.439 50.121,-50.122l0,-95.479m-400.298,103.724c-0.444,-2.681 -0.675,-5.435 -0.675,-8.245l0,-300.73c0,-27.681 22.44,-50.121 50.122,-50.121l300.73,-0c27.682,-0 50.121,22.44 50.121,50.121l0,205.251m-400.298,103.724l95.75,-95.75c17.042,-14.911 41.966,-16.542 60.807,-3.982l12.761,8.506c18.159,12.107 42.069,11.069 59.113,-2.564l66.364,-53.094c16.916,-13.533 40.478,-14.593 58.459,-2.994c1.993,1.285 3.767,2.876 5.443,4.556l41.601,41.598m-225.547,-130.068c-0,27.682 -22.439,50.121 -50.122,50.121c-27.681,0 -50.121,-22.439 -50.121,-50.121c-0,-27.682 22.44,-50.122 50.121,-50.122c27.683,0 50.122,22.44 50.122,50.122Z" style="fill:none;fill-rule:nonzero;stroke:#6e00ff;stroke-width:37.59px;stroke-miterlimit:4;"/><clipPath id="_clip2"><rect id="chat-2-svgrepo-com.svg" x="4194.95" y="9.679" width="648.769" height="648.769"/></clipPath><g clip-path="url(#_clip2)"><path d="M4384.17,117.807c-59.717,-0 -108.128,48.407 -108.128,108.12l0,142.31c0,59.714 48.411,108.12 108.128,108.12l0,71.254c0,2.26 2.606,3.522 4.379,2.122l92.937,-73.376l173.005,0c59.716,0 108.128,-48.406 108.128,-108.12l-0,-142.31c-0,-59.713 -48.412,-108.12 -108.128,-108.12l-270.321,-0Z" style="fill:none;fill-rule:nonzero;stroke:#6e00ff;stroke-width:54.06px;stroke-linejoin:miter;stroke-miterlimit:4;"/><path d="M4438.23,307.031c0,14.93 -12.102,27.032 -27.032,27.032c-14.929,0 -27.032,-12.102 -27.032,-27.032c0,-14.93 12.103,-27.032 27.032,-27.032c14.93,0 27.032,12.102 27.032,27.032Z" style="fill:#6e00ff;fill-rule:nonzero;stroke:#6e00ff;stroke-width:0.81px;stroke-linecap:butt;stroke-miterlimit:2;"/><path d="M4546.36,307.031c-0,14.93 -12.103,27.032 -27.032,27.032c-14.93,0 -27.033,-12.102 -27.033,-27.032c0,-14.93 12.103,-27.032 27.033,-27.032c14.929,0 27.032,12.102 27.032,27.032Z" style="fill:#6e00ff;fill-rule:nonzero;stroke:#6e00ff;stroke-width:0.81px;stroke-linecap:butt;stroke-miterlimit:2;"/><path d="M4654.49,307.031c-0,14.93 -12.102,27.032 -27.032,27.032c-14.93,0 -27.032,-12.102 -27.032,-27.032c-0,-14.93 12.102,-27.032 27.032,-27.032c14.93,0 27.032,12.102 27.032,27.032Z" style="fill:#6e00ff;fill-rule:nonzero;stroke:#6e00ff;stroke-width:0.81px;stroke-linecap:butt;stroke-miterlimit:2;"/></g></svg>