<?xml version="1.0" encoding="UTF-8" standalone="no"?><!DOCTYPE svg PUBLIC "-//W3C//DTD SVG 1.1//EN" "http://www.w3.org/Graphics/SVG/1.1/DTD/svg11.dtd"><svg width="100%" height="100%" viewBox="0 0 649 649" version="1.1" xmlns="http://www.w3.org/2000/svg" xmlns:xlink="http://www.w3.org/1999/xlink" xml:space="preserve" xmlns:serif="http://www.serif.com/" style="fill-rule:evenodd;clip-rule:evenodd;stroke-linecap:round;"><clipPath id="_clip1"><rect id="chat-2-svgrepo-com.svg" x="0" y="0" width="648.769" height="648.769"/></clipPath><g clip-path="url(#_clip1)"><path d="M189.224,108.128c-59.717,0 -108.128,48.407 -108.128,108.12l0,142.31c0,59.714 48.411,108.121 108.128,108.121l0,71.253c0,2.26 2.606,3.523 4.379,2.122l92.937,-73.375l173.005,-0c59.716,-0 108.128,-48.407 108.128,-108.121l-0,-142.309c-0,-59.714 -48.412,-108.121 -108.128,-108.121l-270.321,0Z" style="fill:none;fill-rule:nonzero;stroke:#6e00ff;stroke-width:54.06px;"/><path d="M243.288,297.353c0,14.929 -12.102,27.032 -27.032,27.032c-14.929,-0 -27.032,-12.103 -27.032,-27.032c0,-14.93 12.103,-27.033 27.032,-27.033c14.93,0 27.032,12.103 27.032,27.033Z" style="fill:#6e00ff;fill-rule:nonzero;stroke:#6e00ff;stroke-width:0.81px;stroke-linecap:butt;stroke-linejoin:round;stroke-miterlimit:2;"/><path d="M351.417,297.353c-0,14.929 -12.103,27.032 -27.032,27.032c-14.93,-0 -27.032,-12.103 -27.032,-27.032c-0,-14.93 12.102,-27.033 27.032,-27.033c14.929,0 27.032,12.103 27.032,27.033Z" style="fill:#6e00ff;fill-rule:nonzero;stroke:#6e00ff;stroke-width:0.81px;stroke-linecap:butt;stroke-linejoin:round;stroke-miterlimit:2;"/><path d="M459.545,297.353c-0,14.929 -12.102,27.032 -27.032,27.032c-14.93,-0 -27.032,-12.103 -27.032,-27.032c-0,-14.93 12.102,-27.033 27.032,-27.033c14.93,0 27.032,12.103 27.032,27.033Z" style="fill:#6e00ff;fill-rule:nonzero;stroke:#6e00ff;stroke-width:0.81px;stroke-linecap:butt;stroke-linejoin:round;stroke-miterlimit:2;"/></g></svg>