<?xml version="1.0" encoding="UTF-8" standalone="no"?><!DOCTYPE svg PUBLIC "-//W3C//DTD SVG 1.1//EN" "http://www.w3.org/Graphics/SVG/1.1/DTD/svg11.dtd"><svg width="100%" height="100%" viewBox="0 0 281 281" version="1.1" xmlns="http://www.w3.org/2000/svg" xmlns:xlink="http://www.w3.org/1999/xlink" xml:space="preserve" xmlns:serif="http://www.serif.com/" style="fill-rule:evenodd;clip-rule:evenodd;stroke-linecap:round;stroke-linejoin:round;stroke-miterlimit:2;"><g><path d="M140.29,212.836c-40.068,0 -72.55,-32.481 -72.55,-72.548c-0,-40.067 32.482,-72.548 72.55,-72.548c40.064,-0 72.548,32.481 72.548,72.548c-0,40.067 -32.484,72.548 -72.548,72.548Zm137.201,-55.75c0.67,-5.511 1.054,-11.106 1.054,-16.798c0,-5.691 -0.384,-11.287 -1.054,-16.798c-42.743,-11.36 -50.838,-30.709 -28.662,-68.786c-6.731,-8.52 -14.433,-16.223 -22.953,-22.952c-38.098,22.192 -57.447,14.094 -68.804,-28.67c-5.505,-0.667 -11.097,-1.05 -16.782,-1.05c-5.688,0 -11.279,0.383 -16.785,1.05c-11.357,42.764 -30.706,50.862 -68.805,28.67c-8.518,6.729 -16.221,14.432 -22.95,22.952c22.174,38.077 14.079,57.426 -28.665,68.786c-0.67,5.511 -1.053,11.107 -1.053,16.798c0,5.692 0.383,11.287 1.053,16.798c42.744,11.361 50.839,30.71 28.665,68.785c6.729,8.522 14.432,16.224 22.95,22.953c38.099,-22.192 57.448,-14.094 68.805,28.671c5.506,0.666 11.097,1.049 16.785,1.049c5.685,0 11.277,-0.383 16.782,-1.049c11.357,-42.765 30.706,-50.863 68.804,-28.671c8.52,-6.729 16.222,-14.431 22.953,-22.953c-22.176,-38.075 -14.081,-57.424 28.662,-68.785Z" style="fill:#fff;fill-rule:nonzero;"/><path d="M140.29,235.623c-53.954,0 -93.201,-32.124 -93.201,-95.335c0,-63.21 53.133,-93.555 93.201,-93.555c40.064,0 94.266,29.989 94.266,93.555c0,51.104 -34.619,95.335 -94.266,95.335Zm137.201,-78.537c0.67,-5.511 1.054,-11.106 1.054,-16.798c0,-5.691 -0.384,-11.287 -1.054,-16.798c-42.743,-11.36 -50.838,-30.709 -28.662,-68.786c-6.731,-8.52 -14.433,-16.223 -22.953,-22.952c-38.098,22.192 -57.447,14.094 -68.804,-28.67c-5.505,-0.667 -11.097,-1.05 -16.782,-1.05c-5.688,0 -11.279,0.383 -16.785,1.05c-11.357,42.764 -30.706,50.862 -68.805,28.67c-8.518,6.729 -16.221,14.432 -22.95,22.952c22.174,38.077 14.079,57.426 -28.665,68.786c-0.67,5.511 -1.053,11.107 -1.053,16.798c0,5.692 0.383,11.287 1.053,16.798c42.744,11.361 50.839,30.71 28.665,68.785c6.729,8.522 14.432,16.224 22.95,22.953c38.099,-22.192 57.448,-14.094 68.805,28.671c5.506,0.666 11.097,1.049 16.785,1.049c5.685,0 11.277,-0.383 16.782,-1.049c11.357,-42.765 30.706,-50.863 68.804,-28.671c8.52,-6.729 16.222,-14.431 22.953,-22.953c-22.176,-38.075 -14.081,-57.424 28.662,-68.785Z" style="fill:#ffd5a4;stroke:#231f20;stroke-width:4.06px;"/><g><circle cx="173.587" cy="117.204" r="22.492" style="fill:#ffd9d9;stroke:#000;stroke-width:3.35px;stroke-miterlimit:1.5;"/><path d="M140.289,174.163l-0,-1.493c-0,-8.746 3.474,-17.133 9.658,-23.316c6.184,-6.184 14.571,-9.658 23.316,-9.658c0.001,-0 0.002,-0 0.003,-0c18.013,-0 32.701,14.437 33.011,32.447c0.017,0.95 0.026,1.493 0.026,1.493" style="fill:#5928e5;stroke:#000;stroke-width:3.8px;stroke-linecap:butt;stroke-miterlimit:1.5;"/></g><g><circle cx="106.434" cy="116.162" r="21.449" style="fill:#ffd9d9;stroke:#000;stroke-width:3.35px;stroke-miterlimit:1.5;"/><path d="M74.679,170.482l-0,-1.422c-0,-8.341 3.313,-16.34 9.211,-22.238c5.897,-5.897 13.896,-9.21 22.237,-9.21c0,-0 0.001,-0 0.001,-0c17.178,-0 31.186,13.768 31.482,30.944c0.015,0.905 0.024,1.423 0.024,1.423" style="fill:#5928e5;stroke:#000;stroke-width:3.8px;stroke-linecap:butt;stroke-miterlimit:1.5;"/></g><g><circle cx="140.623" cy="120.516" r="25.804" style="fill:#ffd9d9;stroke:#000;stroke-width:3.35px;stroke-miterlimit:1.5;"/><path d="M102.421,185.864l-0,-1.712c-0,-10.033 3.986,-19.656 11.081,-26.751c7.095,-7.095 16.717,-11.081 26.751,-11.081c0.001,0 0.001,0 0.002,0c20.665,0 37.517,16.564 37.872,37.226c0.019,1.089 0.03,1.713 0.03,1.713" style="fill:#5928e5;stroke:#000;stroke-width:3.8px;stroke-linecap:butt;stroke-miterlimit:1.5;"/></g></g></svg>