<?xml version="1.0" encoding="UTF-8" standalone="no"?><!DOCTYPE svg PUBLIC "-//W3C//DTD SVG 1.1//EN" "http://www.w3.org/Graphics/SVG/1.1/DTD/svg11.dtd"><svg width="100%" height="100%" viewBox="0 0 267 267" version="1.1" xmlns="http://www.w3.org/2000/svg" xmlns:xlink="http://www.w3.org/1999/xlink" xml:space="preserve" xmlns:serif="http://www.serif.com/" style="fill-rule:evenodd;clip-rule:evenodd;stroke-linecap:round;stroke-linejoin:round;stroke-miterlimit:1.5;"><rect x="0" y="0" width="266.667" height="266.667" style="fill:none;"/><g><path d="M75.893,139.69c3.469,-20.079 1.541,-51.424 -0,-81.963c1.977,-65.633 114.294,-66.905 113.944,-0c-2.124,35.034 -3.795,68.347 -0,80.917" style="fill:none;stroke:#000;stroke-width:4.17px;"/><path d="M75.893,139.69c3.469,-20.079 1.541,-51.424 -0,-81.963c1.977,-65.633 114.294,-66.905 113.944,-0c-2.124,35.034 -3.795,68.347 -0,80.917" style="fill:#ffd5a4;"/><path d="M96.653,179.621l-30.195,-0.496l-0.46,-28.027c5.324,-28.931 129.306,-32.439 133.491,0.459l0.669,28.487l-31.04,0.459" style="fill:none;stroke:#000;stroke-width:4.17px;"/><path d="M96.653,179.621l-30.195,-0.496l-0.46,-28.027c5.324,-28.931 129.306,-32.439 133.491,0.459l0.669,28.487l-31.04,0.459" style="fill:#7200ff;fill-opacity:0.98;"/><path d="M93.933,161.376l-0,16.173" style="fill:none;stroke:#000;stroke-width:4.17px;"/><path d="M173.326,161.376l0,16.173" style="fill:none;stroke:#000;stroke-width:4.17px;"/><path d="M51.146,180.503l164.668,0l-11.468,78.139l-142.32,0l-10.88,-78.139Z" style="fill:none;stroke:#000;stroke-width:4.17px;"/><path d="M51.146,180.503l164.668,0l-11.468,78.139l-142.32,0l-10.88,-78.139Z" style="fill:#e6d2ff;"/><path d="M45.854,258.642l174.959,0" style="fill:none;stroke:#000;stroke-width:4.17px;"/><circle cx="132.563" cy="223.1" r="11.761" style="fill:none;stroke:#000;stroke-width:4.17px;"/><circle cx="132.563" cy="223.1" r="11.761" style="fill:#7405fe;"/><path d="M113.345,107.457l0.169,20.432l38.843,-0.452l-0.603,-19.873" style="fill:none;stroke:#000;stroke-width:4.17px;"/><path d="M113.345,107.457l0.169,20.432l38.843,-0.452l-0.603,-19.873" style="fill:#d3baba;"/><path d="M99.079,46.343c4.344,8.887 9.572,10.223 15.162,11.027l50.999,-0.46l-0.919,38.227c-3.35,6.175 -8.542,10.509 -14.702,13.873c-10.37,2.069 -20.931,2.224 -31.703,0.278c-10.002,-3.016 -15.602,-10.433 -18.378,-20.676l-0.459,-42.269Z" style="fill:none;stroke:#000;stroke-width:4.17px;"/><path d="M99.079,46.343c4.344,8.887 9.572,10.223 15.162,11.027l50.999,-0.46l-0.919,38.227c-3.35,6.175 -8.542,10.509 -14.702,13.873c-10.37,2.069 -20.931,2.224 -31.703,0.278c-10.002,-3.016 -15.602,-10.433 -18.378,-20.676l-0.459,-42.269Z" style="fill:#ffb0b0;"/><path d="M144.324,92.21c8.105,-1.549 15.164,-5.886 20.916,-13.709" style="fill:none;stroke:#000;stroke-width:4.17px;"/><circle cx="136.686" cy="92.21" r="7.638" style="fill:none;stroke:#000;stroke-width:4.17px;"/><circle cx="136.686" cy="92.21" r="7.638" style="fill:#ebebeb;fill-opacity:0.41;"/></g></svg>