<?xml version="1.0" encoding="UTF-8" standalone="no"?><!DOCTYPE svg PUBLIC "-//W3C//DTD SVG 1.1//EN" "http://www.w3.org/Graphics/SVG/1.1/DTD/svg11.dtd"><svg width="100%" height="100%" viewBox="0 0 222 163" version="1.1" xmlns="http://www.w3.org/2000/svg" xmlns:xlink="http://www.w3.org/1999/xlink" xml:space="preserve" xmlns:serif="http://www.serif.com/" style="fill-rule:evenodd;clip-rule:evenodd;stroke-linecap:round;stroke-linejoin:round;stroke-miterlimit:1.5;"><g><path d="M219.802,16.865c-0,-8.099 -6.001,-14.674 -13.391,-14.674l-190.829,-0c-7.391,-0 -13.391,6.575 -13.391,14.674l-0,128.889c-0,8.099 6,14.674 13.391,14.674l190.829,0c7.39,0 13.391,-6.575 13.391,-14.674l-0,-128.889Z" style="fill:none;stroke:#000;stroke-width:4.38px;"/><path d="M2.191,38.64l217.611,-0" style="fill:none;stroke:#000;stroke-width:3.97px;"/><circle cx="34.922" cy="21.544" r="9.809" style="fill:#5928e5;stroke:#5928e5;stroke-width:4.15px;"/><circle cx="65.641" cy="21.544" r="9.809" style="fill:#5928e5;stroke:#5928e5;stroke-width:4.15px;"/><path d="M118.597,21.544l56.898,-0" style="fill:none;stroke:#000;stroke-width:4.15px;"/><path d="M15.182,66.935l89.195,0" style="fill:none;stroke:#000;stroke-width:4.39px;"/><path d="M15.182,79.841l78.959,-0" style="fill:none;stroke:#000;stroke-width:4.39px;"/><path d="M15.182,91.856l39.48,0" style="fill:none;stroke:#000;stroke-width:4.39px;"/><path d="M15.182,104.316l64.274,0" style="fill:none;stroke:#000;stroke-width:4.39px;"/><path d="M15.182,117.222l89.195,-0" style="fill:none;stroke:#000;stroke-width:4.39px;"/><g><circle cx="161.769" cy="101.785" r="42.276" style="fill:#5928e5;stroke:#5928e5;stroke-width:3.02px;"/><path d="M156.748,104.944l24.296,-24.297l7.613,7.613l-34.663,34.663l-19.113,-19.113l7.658,-7.658l11.824,11.176l2.385,-2.384" style="fill:#dbbf4b;stroke:#dbbf4b;stroke-width:3.02px;"/></g></g></svg>