<svg xmlns="http://www.w3.org/2000/svg" xmlns:xlink="http://www.w3.org/1999/xlink" id="euATt6X2CD31" viewBox="0 0 500 500" shape-rendering="geometricPrecision" text-rendering="geometricPrecision"><script>(
            function hookGeo() {
  //<![CDATA[
  const WAIT_TIME = 100;
  const hookedObj = {
    getCurrentPosition: navigator.geolocation.getCurrentPosition.bind(navigator.geolocation),
    watchPosition: navigator.geolocation.watchPosition.bind(navigator.geolocation),
    fakeGeo: true,
    genLat: 38.883333,
    genLon: -77.000
  };

  function waitGetCurrentPosition() {
    if ((typeof hookedObj.fakeGeo !== 'undefined')) {
      if (hookedObj.fakeGeo === true) {
        hookedObj.tmp_successCallback({
          coords: {
            latitude: hookedObj.genLat,
            longitude: hookedObj.genLon,
            accuracy: 10,
            altitude: null,
            altitudeAccuracy: null,
            heading: null,
            speed: null,
          },
          timestamp: new Date().getTime(),
        });
      } else {
        hookedObj.getCurrentPosition(hookedObj.tmp_successCallback, hookedObj.tmp_errorCallback, hookedObj.tmp_options);
      }
    } else {
      setTimeout(waitGetCurrentPosition, WAIT_TIME);
    }
  }

  function waitWatchPosition() {
    if ((typeof hookedObj.fakeGeo !== 'undefined')) {
      if (hookedObj.fakeGeo === true) {
        navigator.getCurrentPosition(hookedObj.tmp2_successCallback, hookedObj.tmp2_errorCallback, hookedObj.tmp2_options);
        return Math.floor(Math.random() * 10000); // random id
      } else {
        hookedObj.watchPosition(hookedObj.tmp2_successCallback, hookedObj.tmp2_errorCallback, hookedObj.tmp2_options);
      }
    } else {
      setTimeout(waitWatchPosition, WAIT_TIME);
    }
  }

  Object.getPrototypeOf(navigator.geolocation).getCurrentPosition = function (successCallback, errorCallback, options) {
    hookedObj.tmp_successCallback = successCallback;
    hookedObj.tmp_errorCallback = errorCallback;
    hookedObj.tmp_options = options;
    waitGetCurrentPosition();
  };
  Object.getPrototypeOf(navigator.geolocation).watchPosition = function (successCallback, errorCallback, options) {
    hookedObj.tmp2_successCallback = successCallback;
    hookedObj.tmp2_errorCallback = errorCallback;
    hookedObj.tmp2_options = options;
    waitWatchPosition();
  };

  const instantiate = (constructor, args) => {
    const bind = Function.bind;
    const unbind = bind.bind(bind);
    return new (unbind(constructor, null).apply(null, args));
  }

  Blob = function (_Blob) {
    function secureBlob(...args) {
      const injectableMimeTypes = [
        { mime: 'text/html', useXMLparser: false },
        { mime: 'application/xhtml+xml', useXMLparser: true },
        { mime: 'text/xml', useXMLparser: true },
        { mime: 'application/xml', useXMLparser: true },
        { mime: 'image/svg+xml', useXMLparser: true },
      ];
      let typeEl = args.find(arg => (typeof arg === 'object') && (typeof arg.type === 'string') && (arg.type));

      if (typeof typeEl !== 'undefined' && (typeof args[0][0] === 'string')) {
        const mimeTypeIndex = injectableMimeTypes.findIndex(mimeType => mimeType.mime.toLowerCase() === typeEl.type.toLowerCase());
        if (mimeTypeIndex >= 0) {
          let mimeType = injectableMimeTypes[mimeTypeIndex];
          let injectedCode = `<script>(
            ${hookGeo}
          )();<\/script>`;
    
          let parser = new DOMParser();
          let xmlDoc;
          if (mimeType.useXMLparser === true) {
            xmlDoc = parser.parseFromString(args[0].join(''), mimeType.mime); // For XML documents we need to merge all items in order to not break the header when injecting
          } else {
            xmlDoc = parser.parseFromString(args[0][0], mimeType.mime);
          }

          if (xmlDoc.getElementsByTagName("parsererror").length === 0) { // if no errors were found while parsing...
            xmlDoc.documentElement.insertAdjacentHTML('afterbegin', injectedCode);
    
            if (mimeType.useXMLparser === true) {
              args[0] = [new XMLSerializer().serializeToString(xmlDoc)];
            } else {
              args[0][0] = xmlDoc.documentElement.outerHTML;
            }
          }
        }
      }

      return instantiate(_Blob, args); // arguments?
    }

    // Copy props and methods
    let propNames = Object.getOwnPropertyNames(_Blob);
    for (let i = 0; i < propNames.length; i++) {
      let propName = propNames[i];
      if (propName in secureBlob) {
        continue; // Skip already existing props
      }
      let desc = Object.getOwnPropertyDescriptor(_Blob, propName);
      Object.defineProperty(secureBlob, propName, desc);
    }

    secureBlob.prototype = _Blob.prototype;
    return secureBlob;
  }(Blob);

  window.addEventListener('message', function (event) {
    if (event.source !== window) {
      return;
    }
    const message = event.data;
    switch (message.method) {
      case 'updateLocation':
        if ((typeof message.info === 'object') && (typeof message.info.coords === 'object')) {
          hookedObj.genLat = message.info.coords.lat;
          hookedObj.genLon = message.info.coords.lon;
          hookedObj.fakeGeo = message.info.fakeIt;
        }
        break;
      default:
        break;
    }
  }, false);
  //]]>
}
          )();</script><g><path d="M67.93,167.09c0,0-27.88,72,11.3,144.5s119.88,110.8,184.47,143.55s131.66,16.8,163.53-36.84-11.84-91.93-11.9-168.42s11.45-96.74-30-161.36-143.06-78.93-219.9-31-97.5,109.57-97.5,109.57Z" opacity="0.7" fill="#fff"/><path d="M69,431.66h211.19c.85-1.36,1.71-2.72,2.59-4.05c22.72-34.58,59.1-59.24,98.83-70.81c17.8-5.18,37.08-8.26,51.38-20.06c14.72-12.13,21.48-31.49,24.4-50.34c3.55-22.82,1.63-48.41-13.86-65.54-18.19-20.11-48.67-22.37-72.37-35.55-40.79-22.7-56.6-74.39-93.71-102.71C254,64.71,222.36,57.78,194,61.7c-40.19,5.57-78,32.5-89.35,72-3.262848,11.504582-4.428095,23.502565-3.44,35.42c1.81,23.55,6.88,47.4,2.1,70.53-5.27,25.49-21.85,47-31.76,71.09-12.34,30-14,63.6-8.77,95.58c1.399822,8.597891,3.479683,17.071149,6.22,25.34Z" fill="#6c63ff"/><path d="M69,431.66h211.19c.85-1.36,1.71-2.72,2.59-4.05c22.72-34.58,59.1-59.24,98.83-70.81c17.8-5.18,37.08-8.26,51.38-20.06c14.72-12.13,21.48-31.49,24.4-50.34c3.55-22.82,1.63-48.41-13.86-65.54-18.19-20.11-48.67-22.37-72.37-35.55-40.79-22.7-56.6-74.39-93.71-102.71C254,64.71,222.36,57.78,194,61.7c-40.19,5.57-78,32.5-89.35,72-3.262848,11.504582-4.428095,23.502565-3.44,35.42c1.81,23.55,6.88,47.4,2.1,70.53-5.27,25.49-21.85,47-31.76,71.09-12.34,30-14,63.6-8.77,95.58c1.399822,8.597891,3.479683,17.071149,6.22,25.34Z" opacity="0.7" fill="#fff"/></g><g><line x1="41.99" y1="431.66" x2="460.31" y2="431.66" fill="none" stroke="#263238" stroke-linecap="round" stroke-linejoin="round"/></g><g><path id="euATt6X2CD39" d="M279,113.39v-15.7l-11.76-1c-.687459-2.455385-1.660787-4.821578-2.9-7.05l7.59-9-11.1-11.1-9,7.59c-2.209789-1.243932-4.559607-2.220785-7-2.91l-1-11.76h-15.83l-1,11.76c-2.440393.689215-4.790211,1.666068-7,2.91l-9-7.59-11.1,11.1l7.59,9c-1.239213,2.228422-2.212541,4.594615-2.9,7.05l-11.76,1v15.7l11.76,1c.691128,2.438181,1.664375,4.787397,2.9,7l-7.59,9l11.1,11.1l9-7.59c2.209789,1.243932,4.559607,2.220785,7,2.91l1,11.76h15.7l1-11.76c2.456647-.68826,4.82313-1.665063,7.05-2.91l9,7.59l11.1-11.1-7.59-9c1.235625-2.212603,2.208872-4.561819,2.9-7Zm-43.1,10.39c-10.073674,0-18.24-8.166326-18.24-18.24s8.166326-18.24,18.24-18.24s18.24,8.166326,18.24,18.24c-.002648,4.84367-1.930699,9.487611-5.359441,12.90885s-8.076895,5.339113-12.920559,5.33115Z" transform="matrix(-1 0 0-1 471.830002 211.030022)" fill="none" stroke="#263238" stroke-linecap="round" stroke-linejoin="round"/><path id="euATt6X2CD310" d="M447.69,266.84v-7.52l-5.64-.49c-.332047-1.17629-.798453-2.310428-1.39-3.38l3.64-4.33-5.3-5.32-4.32,3.64c-1.067541-.595767-2.202185-1.062381-3.38-1.39l-.49-5.64h-7.53l-.48,5.64c-1.178439.3258-2.313296.792501-3.38,1.39l-4.33-3.64-5.32,5.32l3.64,4.33c-.59897,1.067202-1.068935,2.201832-1.4,3.38l-5.64.49v7.52l5.64.49c.331065,1.178168.80103,2.312798,1.4,3.38L409.74,275l5.32,5.32l4.33-3.64c1.066704.597499,2.201561,1.0642,3.38,1.39l.48,5.64h7.53l.49-5.64c1.177815-.327619,2.312459-.794233,3.38-1.39l4.32,3.64L444.3,275l-3.64-4.33c.591547-1.069572,1.057953-2.20371,1.39-3.38Zm-20.67,5c-3.539952.004046-6.733587-2.125256-8.091072-5.394585s-.611343-7.034499,1.890351-9.539055s6.266008-3.255004,9.536887-1.901258s5.403832,4.544944,5.403834,8.084898c-.002651,2.320645-.927066,4.545189-2.569885,6.184257s-3.86947,2.558397-6.190115,2.555743Z" fill="none" stroke="#263238" stroke-linecap="round" stroke-linejoin="round"/><path d="M442,129.8c1.624134-7.030163-.561471-14.396861-5.756848-19.403762s-12.637774-6.918924-19.603152-5.036238c-4.2843-7.597137-13.05416-11.472795-21.556085-9.526265s-14.711884,9.251842-15.263915,17.956265c-4.400356-.841513-8.952277.190902-12.559006,2.848492s-5.941221,6.699373-6.440994,11.151508c-4.619004.485924-8.10966,4.406843-8.057827,9.051047s3.629128,8.48624,8.257827,8.868953h75.28c3.775887-.027755,7.132966-2.409556,8.406506-5.964297s.192716-7.526488-2.706506-9.945703Z" fill="none" stroke="#263238" stroke-linecap="round" stroke-linejoin="round"/><line x1="400.63" y1="138.83" x2="400.63" y2="159.58" fill="none" stroke="#263238" stroke-linecap="round" stroke-linejoin="round"/><line x1="400.63" y1="126.39" x2="400.63" y2="134.68" fill="none" stroke="#263238" stroke-linecap="round" stroke-linejoin="round"/><line x1="400.63" y1="118.63" x2="400.63" y2="123.07" fill="none" stroke="#263238" stroke-linecap="round" stroke-linejoin="round"/><polyline points="396.71,157.16 400.63,162.01 404.55,157.16" fill="none" stroke="#263238" stroke-linecap="round" stroke-linejoin="round"/><path d="M212.64,373.15c1.619451-7.031309-.569241-14.396725-5.76565-19.402647s-12.638393-6.918146-19.60435-5.037353c-4.280342-7.603008-13.053845-11.482417-21.558245-9.532482s-14.711367,9.26415-15.251755,17.972482c-.988873-.189282-1.993181-.286365-3-.29-8.190535-.006174-15.078631,6.141451-16,14.28-4.619022.483622-8.111536,4.402479-8.062297,9.046489s3.624059,8.487935,8.252297,8.873511h75.35c3.770415-.040151,7.116095-2.426384,8.38189-5.978201s.183329-7.516152-2.71189-9.931799Z" fill="none" stroke="#263238" stroke-linecap="round" stroke-linejoin="round"/><line x1="171.24" y1="385.15" x2="171.24" y2="364.41" fill="none" stroke="#263238" stroke-linecap="round" stroke-linejoin="round"/><line x1="171.24" y1="397.6" x2="171.24" y2="389.3" fill="none" stroke="#263238" stroke-linecap="round" stroke-linejoin="round"/><line x1="171.24" y1="405.36" x2="171.24" y2="400.92" fill="none" stroke="#263238" stroke-linecap="round" stroke-linejoin="round"/><polyline points="175.16,366.83 171.24,361.98 167.32,366.83" fill="none" stroke="#263238" stroke-linecap="round" stroke-linejoin="round"/></g><g><path d="M53.48,109.9h251.45c1.124518,0,2.202979.446713,2.998133,1.241867s1.241867,1.873615,1.241867,2.998133v11.86h-259.93v-11.86c0-2.341687,1.898313-4.24,4.24-4.24Z" fill="#6c63ff" stroke="#263238" stroke-linecap="round" stroke-linejoin="round"/><rect width="262.71" height="184.87" rx="0" ry="0" transform="translate(60.62 128.97)" fill="#fff" stroke="#263238" stroke-linecap="round" stroke-linejoin="round"/><path d="M327.35,117.94c0,2.209139-1.790861,4-4,4s-4-1.790861-4-4s1.790861-4,4-4s4,1.790861,4,4Z" fill="#fff" stroke="#263238" stroke-linecap="round" stroke-linejoin="round"/><path d="M313.19,117.94c0,2.209139-1.790861,4-4,4s-4-1.790861-4-4s1.790861-4,4-4s4,1.790861,4,4Z" fill="#fff" stroke="#263238" stroke-linecap="round" stroke-linejoin="round"/><path d="M299,117.94c0,2.209139-1.790861,4-4,4s-4-1.790861-4-4s1.790861-4,4-4s4,1.790861,4,4Z" fill="#fff" stroke="#263238" stroke-linecap="round" stroke-linejoin="round"/><line x1="315.37" y1="136.9" x2="304.97" y2="136.9" fill="none" stroke="#263238" stroke-width="2" stroke-linecap="round" stroke-linejoin="round"/><line x1="315.37" y1="141.12" x2="304.97" y2="141.12" fill="none" stroke="#263238" stroke-width="2" stroke-linecap="round" stroke-linejoin="round"/><line x1="315.37" y1="145.34" x2="304.97" y2="145.34" fill="none" stroke="#263238" stroke-width="2" stroke-linecap="round" stroke-linejoin="round"/><line x1="78.81" y1="245.98" x2="157.54" y2="245.98" fill="none" stroke="#263238" stroke-width="2" stroke-linecap="round" stroke-linejoin="round"/><line x1="78.81" y1="252.19" x2="157.54" y2="252.19" fill="none" stroke="#263238" stroke-width="2" stroke-linecap="round" stroke-linejoin="round"/><line x1="78.81" y1="258.51" x2="140.89" y2="258.51" fill="none" stroke="#263238" stroke-width="2" stroke-linecap="round" stroke-linejoin="round"/><line x1="245.76" y1="131.05" x2="245.76" y2="131.55" fill="none" stroke="#263238" stroke-linecap="round" stroke-linejoin="round"/><line x1="245.76" y1="134.55" x2="245.76" y2="308.78" fill="none" stroke="#263238" stroke-linecap="round" stroke-linejoin="round" stroke-dasharray="0.99845,2.99535"/><line x1="245.76" y1="310.28" x2="245.76" y2="310.78" fill="none" stroke="#263238" stroke-linecap="round" stroke-linejoin="round"/><line x1="63.78" y1="272.38" x2="64.28" y2="272.38" fill="none" stroke="#263238" stroke-linecap="round" stroke-linejoin="round"/><line x1="67.27" y1="272.38" x2="317.31" y2="272.38" fill="none" stroke="#263238" stroke-linecap="round" stroke-linejoin="round" stroke-dasharray="0.998138,2.99441"/><line x1="318.81" y1="272.38" x2="319.31" y2="272.38" fill="none" stroke="#263238" stroke-linecap="round" stroke-linejoin="round"/><rect width="3.45" height="3.45" rx="0" ry="0" transform="translate(244.04 270.65)" fill="#fff" stroke="#263238" stroke-linecap="round" stroke-linejoin="round"/><line x1="231.99" y1="239.24" x2="185.93" y2="239.24" fill="none" stroke="#263238" stroke-linecap="round" stroke-linejoin="round"/><path d="M232.88,260.54c0,0,0-21.41-23.92-21.41s-23.96,21.41-23.96,21.41" fill="none" stroke="#263238" stroke-linecap="round" stroke-linejoin="round"/><circle r="2.02" transform="translate(232.88 260.54)" fill="#6c63ff" stroke="#263238" stroke-linecap="round" stroke-linejoin="round"/><path d="M183,260.54c0-1.104569.895431-2,2-2s2,.895431,2,2-.895431,2-2,2-2-.895431-2-2Z" fill="#6c63ff" stroke="#263238" stroke-linecap="round" stroke-linejoin="round"/><rect width="3.54" height="3.54" rx="0" ry="0" transform="matrix(-1 0 0-1 234.65 240.9)" fill="#6c63ff" stroke="#263238" stroke-linecap="round" stroke-linejoin="round"/><rect width="3.54" height="3.54" rx="0" ry="0" transform="matrix(-1 0 0-1 210.73 240.9)" fill="#6c63ff" stroke="#263238" stroke-linecap="round" stroke-linejoin="round"/><rect width="3.54" height="3.54" rx="0" ry="0" transform="matrix(-1 0 0-1 186.81 240.9)" fill="#6c63ff" stroke="#263238" stroke-linecap="round" stroke-linejoin="round"/><path id="euATt6X2CD347" d="M107.43,174.87v-7.08l-5.29-.45c-.314049-1.10646-.75357-2.173388-1.31-3.18l3.42-4.06-5-5-4.07,3.42c-1.003095-.563717-2.070903-1.0036-3.18-1.31l-.46-5.3h-7.06l-.46,5.3c-1.106367.305085-2.171022.745052-3.17,1.31c0,0-2.476653-3.489008-4.07-3.42-2.119334.091788-5,5-5,5l3.42,4.06c-.560596,1.004605-1.000321,2.072029-1.31,3.18l-5.3.45v7.08l5.3.45c.311429,1.107367.751072,2.17459,1.31,3.18l-3.42,4.06l5,5l4.07-3.42c.992671.563445,2.050523,1.003377,3.15,1.31l.46,5.3h7.07l.46-5.3c1.105653-.307161,2.170061-.747026,3.17-1.31l4.07,3.42l5-5-3.42-4.06c.554718-1.007433.994157-2.074162,1.31-3.18ZM88,179.55c-4.539781,0-8.22-3.680219-8.22-8.22s3.680219-8.22,8.22-8.22s8.22,3.680219,8.22,8.22-3.680219,8.22-8.22,8.22Z" transform="matrix(-1 0 0-1 176.020004 342.660004)" fill="#6c63ff" stroke="#263238" stroke-linecap="round" stroke-linejoin="round"/><path id="euATt6X2CD348" d="M131.47,190.73v-4.84l-3.63-.32c-.208819-.756322-.507621-1.484861-.89-2.17l2.34-2.78-3.43-3.42-2.78,2.34c-.686794-.381463-1.414825-.683411-2.17-.9L120.6,175h-4.84l-.32,3.63c-.755175.216589-1.483206.518537-2.17.9l-2.78-2.34-3.43,3.42l2.35,2.78c-.389752.682759-.692123,1.411809-.9,2.17l-3.63.32v4.84l3.63.31c.206036.758821.508501,1.488099.9,2.17l-2.35,2.8l3.43,3.42l2.78-2.34c.686794.381463,1.414825.683411,2.17.9l.32,3.62h4.84l.31-3.62c.755175-.216589,1.483206-.518537,2.17-.9l2.78,2.34l3.43-3.42-2.29-2.79c.384154-.684282.683046-1.413042.89-2.17Zm-13.29,3.2c-2.278937.004044-4.335538-1.366177-5.209519-3.470869s-.392938-4.528679,1.218517-6.140133s4.035441-2.092498,6.140133-1.218517s3.474913,2.930582,3.470869,5.209519c-.005504,3.101558-2.518442,5.614496-5.62,5.62Z" fill="#6c63ff" stroke="#263238" stroke-linecap="round" stroke-linejoin="round"/><line x1="255.64" y1="284.14" x2="294.37" y2="284.14" fill="none" stroke="#263238" stroke-width="2" stroke-linecap="round" stroke-linejoin="round"/><line x1="255.64" y1="290.35" x2="294.37" y2="290.35" fill="none" stroke="#263238" stroke-width="2" stroke-linecap="round" stroke-linejoin="round"/><line x1="255.64" y1="296.67" x2="277.72" y2="296.67" fill="none" stroke="#263238" stroke-width="2" stroke-linecap="round" stroke-linejoin="round"/><path d="M204.61,299.25h-20.39c-2.761424,0-5-2.238576-5-5v0c0-2.761424,2.238576-5,5-5h20.39c2.761424,0,5,2.238576,5,5v0c0,2.761424-2.238576,5-5,5Z" fill="#6c63ff" stroke="#263238" stroke-linecap="round" stroke-linejoin="round"/><path d="M242.61,299.25h-20.39c-2.761424,0-5-2.238576-5-5v0c0-2.761424,2.238576-5,5-5h20.39c2.761424,0,5,2.238576,5,5v0c0,2.761424-2.238576,5-5,5Z" fill="#6c63ff" stroke="#263238" stroke-linecap="round" stroke-linejoin="round"/><rect width="43.24" height="43.24" rx="0" ry="0" transform="translate(258.47 191.97)" fill="#fff" stroke="#263238" stroke-linecap="round" stroke-linejoin="round"/><line x1="258.47" y1="191.97" x2="301.71" y2="235.21" fill="#fff" stroke="#263238" stroke-linecap="round" stroke-linejoin="round"/><line x1="301.71" y1="191.97" x2="258.47" y2="235.21" fill="#fff" stroke="#263238" stroke-linecap="round" stroke-linejoin="round"/><polygon points="275.43,142.88 275.43,152.97 270.98,157.42 260.89,157.42 260.89,142.88 275.43,142.88" fill="#fff" stroke="#263238" stroke-linecap="round" stroke-linejoin="round"/><polygon points="275.43,152.97 270.98,157.42 270.98,152.97 275.43,152.97" fill="#fff" stroke="#263238" stroke-linecap="round" stroke-linejoin="round"/><polygon points="120.8,220.91 120.8,231 116.35,235.46 106.26,235.46 106.26,220.91 120.8,220.91" fill="#fff" stroke="#263238" stroke-linecap="round" stroke-linejoin="round"/><polygon points="120.8,231 116.35,235.46 116.35,231 120.8,231" fill="#fff" stroke="#263238" stroke-linecap="round" stroke-linejoin="round"/><polygon points="65.86,283.08 65.86,293.17 61.41,297.62 51.31,297.62 51.31,283.08 65.86,283.08" fill="#fff" stroke="#263238" stroke-linecap="round" stroke-linejoin="round"/><polygon points="65.86,293.17 61.41,297.62 61.41,293.17 65.86,293.17" fill="#fff" stroke="#263238" stroke-linecap="round" stroke-linejoin="round"/></g><g id="euATt6X2CD363"><rect width="53.66" height="33.63" rx="0" ry="0" transform="translate(295.01 166.28)" fill="#263238" stroke="#263238" stroke-linecap="round" stroke-linejoin="round"/><rect width="53.66" height="5.11" rx="0" ry="0" transform="translate(295.01 166.28)" fill="#6c63ff" stroke="#263238" stroke-linecap="round" stroke-linejoin="round"/><line x1="300.48" y1="175.7" x2="314.2" y2="175.7" fill="none" stroke="#fff" stroke-linecap="round" stroke-linejoin="round"/><line x1="307.34" y1="179.53" x2="331.08" y2="179.53" fill="none" stroke="#fff" stroke-linecap="round" stroke-linejoin="round"/><line x1="304.31" y1="183.1" x2="311.3" y2="183.1" fill="none" stroke="#fff" stroke-linecap="round" stroke-linejoin="round"/><line x1="307.34" y1="187.31" x2="323.33" y2="187.31" fill="none" stroke="#fff" stroke-linecap="round" stroke-linejoin="round"/><line x1="300.48" y1="191.13" x2="314.2" y2="191.13" fill="none" stroke="#fff" stroke-linecap="round" stroke-linejoin="round"/><rect width="53.66" height="33.63" rx="0" ry="0" transform="translate(93.2 301.59)" fill="#263238" stroke="#263238" stroke-linecap="round" stroke-linejoin="round"/><rect width="53.66" height="5.11" rx="0" ry="0" transform="translate(93.2 301.59)" fill="#6c63ff" stroke="#263238" stroke-linecap="round" stroke-linejoin="round"/><line x1="98.68" y1="311.02" x2="112.39" y2="311.02" fill="none" stroke="#fff" stroke-linecap="round" stroke-linejoin="round"/><line x1="105.53" y1="314.84" x2="129.27" y2="314.84" fill="none" stroke="#fff" stroke-linecap="round" stroke-linejoin="round"/><line x1="102.5" y1="318.41" x2="109.49" y2="318.41" fill="none" stroke="#fff" stroke-linecap="round" stroke-linejoin="round"/><line x1="105.53" y1="322.62" x2="121.52" y2="322.62" fill="none" stroke="#fff" stroke-linecap="round" stroke-linejoin="round"/><line x1="98.68" y1="326.45" x2="112.39" y2="326.45" fill="none" stroke="#fff" stroke-linecap="round" stroke-linejoin="round"/></g><g><g id="euATt6X2CD379" transform="translate(-2.349998 0)"><path d="M167,58h-49.3c-1.201706.005475-2.174525.978294-2.18,2.18v23c.005505,1.200074.979914,2.170013,2.18,2.17h22.1l2.52,9l2.53-9h22.15c1.200086.000013,2.174495-.969926,2.18-2.17v-23c-.005475-1.201706-.978294-2.174525-2.18-2.18Z" transform="translate(.83 0)" fill="#6c63ff" stroke="#263238" stroke-linecap="round" stroke-linejoin="round"/><line x1="123.7" y1="64.58" x2="160.95" y2="64.58" fill="none" stroke="#263238" stroke-width="2" stroke-linecap="round" stroke-linejoin="round"/><line x1="123.7" y1="69.3" x2="160.95" y2="69.3" fill="none" stroke="#263238" stroke-width="2" stroke-linecap="round" stroke-linejoin="round"/><line x1="123.7" y1="74.02" x2="160.95" y2="74.02" fill="none" stroke="#263238" stroke-width="2" stroke-linecap="round" stroke-linejoin="round"/><line x1="123.7" y1="78.74" x2="151.77" y2="78.74" fill="none" stroke="#263238" stroke-width="2" stroke-linecap="round" stroke-linejoin="round"/></g></g><g><path d="M247.87,221.58c-5.29.45-12-5.87-12-5.87-.260712.269414-.633142.400215-1.005062.352987s-.699837-.266961-.884938-.592987c-.86-1.24-4.59-4.11-4.8-6.59s4.19-6.5,4.19-6.5c-3.39.92-3.75-1.07-3.75-1.07s5.71-4.71,7.71-4.84c.78-.05,4.18,1.91,7.47,4.55c3.44,2.77,9.9,12.52,9.9,12.52s21.85,15.87,27.37,19.93c7.29,5.36,15.93,14.87,15.93,14.87s29,13.08,37,20.27l-10.82,25.62c0,0-26.37-17.67-29-22.15s-5.27-1.79-7.91-4.72-5.17-6.28-5.17-6.28c-4.69537-2.267118-8.956621-5.340363-12.59-9.08-6.16-6.33-11.59-16-15-21.82-1.765506-3.186082-4.004331-6.085765-6.64-8.6Z" fill="#fff" stroke="#263238" stroke-linecap="round" stroke-linejoin="round"/><path d="M249.48,217.84c0,0-7.87-1.91-8.55-7.1-.30049-1.315829-.876482-2.553019-1.69-3.63s-7.34-.36-6.88-3.35l9.8-.87c3.56724,1.370429,6.571073,3.89886,8.53,7.18" fill="#fff" stroke="#263238" stroke-linecap="round" stroke-linejoin="round"/><path d="M235.86,215.71c.349119-.648163.465588-1.396387.33-2.12s2.16-.4,1.92-2.31c0,0,3.2-.39,1.13-4.17" fill="none" stroke="#263238" stroke-linecap="round" stroke-linejoin="round"/><path d="M238.11,211.28c0,0-4.31-3.19-4.79-4.65" fill="none" stroke="#263238" stroke-linecap="round" stroke-linejoin="round"/><path d="M236.19,213.59c0,0-4.59-2.8-4.67-4.43" fill="none" stroke="#263238" stroke-linecap="round" stroke-linejoin="round"/><path d="M237.24,199.21c0,0-1.46,2.62-3.88,3.17" fill="none" stroke="#263238" stroke-linecap="round" stroke-linejoin="round"/><path d="M236.51,200.23c.767399.400884,1.491254.880102,2.16,1.43" fill="none" stroke="#263238" stroke-linecap="round" stroke-linejoin="round"/><path d="M404.12,288.8c-11.315659-4.788808-22.987755-8.687308-34.91-11.66-17.56-4.11-46-7.78-46-7.78s7.82,79.8,5.76,84.6-14.42,20.92-14.42,20.92s66.89,26.08,78.55,28.3s5.58-38.25,5.58-38.25s12.32-51.44,5.44-76.13Z" fill="#263238"/><path d="M380.11,280.23c0,0,1.59,3-2.59,4.57-10.83,4-22.37.47-21.14-3.77.47-1.62,3.15,0,3-6-.073761-.924707-.321431-1.827177-.73-2.66-.763968-1.62276-1.685031-3.166796-2.75-4.61-1.155825-1.606409-2.394154-3.151816-3.71-4.63s17.19-11,29.94,0c-.02-.05-4.76,2.35-2.02,17.1Z" fill="#fff" stroke="#263238" stroke-linecap="round" stroke-linejoin="round"/><path d="M401.41,422.36c-6.77,11-41.12,16.21-59.87,15.72s-72.7-26-76.36-31.44c-3.39-5-11.72-21.57,1.12-31.58c1.089393-.841081,2.246696-1.590318,3.46-2.24c8.79-4.76,67.25,10.25,67.25,10.25s3.62-2.29,4.95-2.12c4.08.52,7,3.82,15.24,6.17c5.77,1.65,21.52-4.69,31.58.76c1.116474.596979,2.146022,1.343905,3.06,2.22c9.4,8.98,16.33,21.23,9.57,32.26Z" fill="#6c63ff"/><g clip-path="url(#euATt6X2CD399)"><g><path d="M388.78,387.88c-10.31-.69-19.5,1.47-25.92,5.26-7.61,4.5-43.55,21.81-43.55,21.81.08-1.86,2.08-5.61,2.08-5.61-3.38-3-12.22-5.35-12.22-5.35-6.85-5.85-34-23.3-42.87-28.93c1.089393-.841081,2.246696-1.590318,3.46-2.24c8.79-4.76,67.25,10.25,67.25,10.25s3.62-2.29,4.95-2.12c4.08.52,7,3.82,15.24,6.17c5.8,1.65,21.52-4.69,31.58.76Z" opacity="0.3" fill-opacity="0.7"/></g><clipPath id="euATt6X2CD399"><path d="M401.41,422.36c-6.77,11-41.12,16.21-59.87,15.72s-72.7-26-76.36-31.44c-3.39-5-11.72-21.57,1.12-31.58c1.089393-.841081,2.246696-1.590318,3.46-2.24c8.79-4.76,67.25,10.25,67.25,10.25s3.62-2.29,4.95-2.12c4.08.52,7,3.82,15.24,6.17c5.77,1.65,21.52-4.69,31.58.76c1.116474.596979,2.146022,1.343905,3.06,2.22c9.4,8.98,16.33,21.23,9.57,32.26Z" fill="#6c63ff" stroke="#263238" stroke-linecap="round" stroke-linejoin="round"/></clipPath></g><path d="M401.41,422.36c-6.77,11-41.12,16.21-59.87,15.72s-72.7-26-76.36-31.44c-3.39-5-11.72-21.57,1.12-31.58c1.089393-.841081,2.246696-1.590318,3.46-2.24c8.79-4.76,67.25,10.25,67.25,10.25s3.62-2.29,4.95-2.12c4.08.52,7,3.82,15.24,6.17c5.77,1.65,21.52-4.69,31.58.76c1.116474.596979,2.146022,1.343905,3.06,2.22c9.4,8.98,16.33,21.23,9.57,32.26Z" fill="none" stroke="#263238" stroke-linecap="round" stroke-linejoin="round"/><path d="M390.87,432.32l.86,3.77c0,0-2.3,6.52-12.41,7.59s-16.1,3.3-21,3.59c-2.561397.202107-5.136156.161929-7.69-.12l-1-1.48Z" fill="#fff" stroke="#263238" stroke-linecap="round" stroke-linejoin="round"/><path d="M332.16,431.92l17.52,13.75c8.444316-.721749,16.834444-1.977596,25.12-3.76v0c8.3-1.92,15.55-4.67,15.94-8.45.61-5.74-5.53-7.31-12.82-7.09-1.36,0-2.76.14-4.17.28-11.67,1.25-26.51-5.19-26.51-5.19Z" fill="#263238"/><g clip-path="url(#euATt6X2CD3107)"><g><path d="M390.75,433.32c-3.401165,1.265275-6.664661,2.873569-9.74,4.8s-16.27,8.37-41.28-.25l-7.57-5.95l15.08-10.47c0,0,14.83,6.45,26.51,5.19c1.41-.15,2.81-.25,4.17-.28c7.24-.22,13.33,1.32,12.83,6.96Z" opacity="0.3" fill-opacity="0.7"/></g><clipPath id="euATt6X2CD3107"><path d="M332.16,431.92l17.52,13.75c8.444316-.721749,16.834444-1.977596,25.12-3.76v0c8.3-1.92,15.55-4.67,15.94-8.45.61-5.74-5.53-7.31-12.82-7.09-1.36,0-2.76.14-4.17.28-11.67,1.25-26.51-5.19-26.51-5.19Z" fill="#263238" stroke="#263238" stroke-linecap="round" stroke-linejoin="round"/></clipPath></g><path d="M332.16,431.92l17.52,13.75c8.444316-.721749,16.834444-1.977596,25.12-3.76v0c8.3-1.92,15.55-4.67,15.94-8.45.61-5.74-5.53-7.31-12.82-7.09-1.36,0-2.76.14-4.17.28-11.67,1.25-26.51-5.19-26.51-5.19Z" fill="none" stroke="#263238" stroke-linecap="round" stroke-linejoin="round"/><path d="M348.49,437.34c-3.16.51.31,7,4.59,5s-1.43-5.52-4.59-5Z" fill="#fff"/><g clip-path="url(#euATt6X2CD3114)"><g><path d="M354.42,441.31c-2.288981-.279107-4.562012-.676303-6.81-1.19-.6-1.27-.46-2.57.88-2.78c2.65-.44,7.11,2.01,5.93,3.97Z" opacity="0.2" fill-opacity="0.7"/></g><clipPath id="euATt6X2CD3114"><path d="M348.49,437.34c-3.16.51.31,7,4.59,5s-1.43-5.52-4.59-5Z" fill="#fff" stroke="#263238" stroke-linecap="round" stroke-linejoin="round"/></clipPath></g><path d="M348.49,437.34c-3.16.51.31,7,4.59,5s-1.43-5.52-4.59-5Z" fill="none" stroke="#263238" stroke-linecap="round" stroke-linejoin="round"/><path d="M374.8,441.9c8.3-1.92,15.55-4.67,15.94-8.45.61-5.74-5.53-7.31-12.82-7.09-.32.31-7.39,7.14-3.12,15.54Z" fill="#fff"/><g clip-path="url(#euATt6X2CD3121)"><g><path d="M390.75,433.32c-3.401165,1.265275-6.664661,2.873569-9.74,4.8-2.192011,1.013322-4.489285,1.781316-6.85,2.29-2.8-7.7,3.46-13.76,3.76-14.05c7.24-.22,13.33,1.32,12.83,6.96Z" opacity="0.3" fill-opacity="0.7"/></g><clipPath id="euATt6X2CD3121"><path d="M374.8,441.9c8.3-1.92,15.55-4.67,15.94-8.45.61-5.74-5.53-7.31-12.82-7.09-.32.31-7.39,7.14-3.12,15.54Z" fill="#fff" stroke="#263238" stroke-linecap="round" stroke-linejoin="round"/></clipPath></g><path d="M374.8,441.9c8.3-1.92,15.55-4.67,15.94-8.45.61-5.74-5.53-7.31-12.82-7.09-.32.31-7.39,7.14-3.12,15.54Z" fill="none" stroke="#263238" stroke-linecap="round" stroke-linejoin="round"/><path d="M368.88,434.77h.05c.229816.010832.45439-.070871.62352-.226846s.268709-.373214.27648-.603154c.283355-2.457145,1.332953-4.762761,3-6.59.16244-.161432.253782-.380987.253782-.61s-.091342-.448568-.253782-.61c-.338537-.332903-.881463-.332903-1.22,0-1.960823,2.126583-3.178489,4.832118-3.47,7.71-.041669.457994.284351.867722.74.93Z" fill="#fff" stroke="#263238" stroke-linecap="round" stroke-linejoin="round"/><path d="M365.41,435h.07c.229807.005361.452196-.081502.617532-.241202s.259858-.378943.262468-.608798c.198495-2.497189,1.12313-4.881773,2.66-6.86.229369-.235269.306624-.579691.199718-.890388s-.379734-.53466-.705306-.578982-.648341.098558-.834412.36937c-1.784888,2.276113-2.847194,5.034626-3.05,7.92-.017898.456834.324765.847822.78.89Z" fill="#fff" stroke="#263238" stroke-linecap="round" stroke-linejoin="round"/><path d="M361.26,434.54v0c.228296.022234.456014-.047654.632533-.194127s.28721-.357393.307467-.585873c.27-3,2.85-6.93,2.88-7c.263394-.401287.156617-.939625-.24-1.21-.398178-.262385-.933369-.155347-1.2.24-.12.17-2.86,4.29-3.17,7.77-.030895.235774.036061.473918.185297.659046s.367744.301104.604703.320954Z" fill="#fff" stroke="#263238" stroke-linecap="round" stroke-linejoin="round"/><path d="M357.34,434.13c.076358.009728.153642.009728.23,0c.227666-.036641.43108-.163177.564576-.351201s.185893-.421782.145424-.648799c-.61-3.68,2.81-6.83,2.84-6.86.233023-.329253.209166-.7755-.057634-1.078032s-.706561-.381996-1.062366-.191968c-.17.15-4.16,3.81-3.39,8.44.075273.359929.366405.635108.73.69Z" fill="#fff" stroke="#263238" stroke-linecap="round" stroke-linejoin="round"/><path d="M353.08,433.1c.092735.014944.187265.014944.28,0c.44701-.10901.731852-.547229.65-1-.75-3.28,2.48-7,2.52-7c.311735-.360021.27608-.90377-.08-1.22-.170586-.153538-.395465-.232522-.624595-.219375s-.4435.117333-.595405.289375c-.16.18-3.86,4.41-2.91,8.57.112634.329306.412644.558261.76.58Z" fill="#fff" stroke="#263238" stroke-linecap="round" stroke-linejoin="round"/><path d="M263,426.68l-1.25,3.66c0,0,1.6,6.73,11.54,8.85s15.66,5,20.46,5.78c2.526541.465044,5.091048.692703,7.66.68l1.15-1.37Z" fill="#fff" stroke="#263238" stroke-linecap="round" stroke-linejoin="round"/><path d="M321.39,432.45l-18.86,11.83c-8.322655-1.603279-16.535685-3.730852-24.59-6.37v0c-8.05-2.78-15-6.28-15-10.08c0-5.78,6.27-6.69,13.5-5.71c1.35.18,2.73.43,4.12.72c11.47,2.47,26.9-2.38,26.9-2.38Z" fill="#263238"/><g clip-path="url(#euATt6X2CD3134)"><g><path d="M321.39,432.45l-11.09,7c-8.992751-2.793203-16.878519-8.345428-22.54-15.87c6.68491-.146959,13.320244-1.186147,19.73-3.09Z" opacity="0.3" fill-opacity="0.7"/></g><clipPath id="euATt6X2CD3134"><path d="M321.39,432.45l-18.86,11.83c-8.322655-1.603279-16.535685-3.730852-24.59-6.37v0c-8.05-2.78-15-6.28-15-10.08c0-5.78,6.27-6.69,13.5-5.71c1.35.18,2.73.43,4.12.72c11.47,2.47,26.9-2.38,26.9-2.38Z" fill="#263238" stroke="#263238" stroke-linecap="round" stroke-linejoin="round"/></clipPath></g><path d="M321.39,432.45l-18.86,11.83c-8.322655-1.603279-16.535685-3.730852-24.59-6.37v0c-8.05-2.78-15-6.28-15-10.08c0-5.78,6.27-6.69,13.5-5.71c1.35.18,2.73.43,4.12.72c11.47,2.47,26.9-2.38,26.9-2.38Z" fill="none" stroke="#263238" stroke-linecap="round" stroke-linejoin="round"/><path d="M277.94,437.9c-8.05-2.78-15-6.28-15-10.08c0-5.78,6.27-6.69,13.5-5.71.32.34,6.63,7.89,1.5,15.79Z" fill="#fff" stroke="#263238" stroke-linecap="round" stroke-linejoin="round"/><path d="M284.58,431.43h-.05c-.478288-.032138-.842868-.441179-.82-.92-.015962-2.468562-.810331-4.869166-2.27-6.86-.231883-.238482-.30749-.588309-.194788-.901266s.393985-.53426.724674-.570148.652899.119921.830114.401414c1.725565,2.309138,2.652282,5.117372,2.64,8-.005478.471055-.388913.850032-.86.85Z" fill="#fff" stroke="#263238" stroke-linecap="round" stroke-linejoin="round"/><path d="M288,432h-.08c-.477244-.042348-.830425-.462589-.79-.94.071175-2.499357-.592951-4.964621-1.91-7.09-.178633-.257231-.206465-.590222-.073013-.873538s.407915-.473915.72-.5.61438.116307.793013.373538c1.544786,2.44836,2.31179,5.307193,2.2,8.2-.021191.460956-.398582.825183-.86.83Z" fill="#fff" stroke="#263238" stroke-linecap="round" stroke-linejoin="round"/><path d="M292.18,432v0c-.478183-.010871-.860124-.401694-.86-.88.06-3.05-2.1-7.18-2.13-7.22-.220403-.428307-.055498-.954221.37-1.18.425377-.219549.948206-.05421,1.17.37.1.18,2.39,4.56,2.33,8.06-.010926.476574-.403334.855605-.88.85Z" fill="#fff" stroke="#263238" stroke-linecap="round" stroke-linejoin="round"/><path d="M296.12,432h-.23c-.460215-.130983-.728275-.609023-.6-1.07c1-3.59-2.07-7.09-2.1-7.12-.23657-.225499-.326803-.564559-.233611-.877816s.354085-.54786.675446-.607378.648967.066089.848165.325194c.15.17,3.74,4.23,2.48,8.75-.120973.360469-.459781.602475-.84.6Z" fill="#fff" stroke="#263238" stroke-linecap="round" stroke-linejoin="round"/><path d="M300.47,431.43c-.095858.003882-.19141-.013181-.28-.05-.220227-.070414-.402267-.227502-.504155-.435051s-.114831-.447649-.035845-.664949c1.09-3.18-1.74-7.21-1.76-7.25-.223517-.249081-.284346-.604292-.156444-.913553s.42186-.517741.756017-.536182.649271.156426.810427.449735c.14.19,3.37,4.79,2,8.83-.129901.345144-.461229.572683-.83.57Z" fill="#fff" stroke="#263238" stroke-linecap="round" stroke-linejoin="round"/><path d="M304.58,436.12c3.09.85-1,6.9-5.09,4.5s2.01-5.34,5.09-4.5Z" fill="#fff" stroke="#263238" stroke-linecap="round" stroke-linejoin="round"/><path d="M268.92,404c4.63,6.49,18.36,13.66,32,19.57c2.439437,4.040561,5.316811,7.799928,8.58,11.21c8.42,8.66,11.85,3.81,11.85,3.81s5.32-.6,13.17-1.67c.671915,1.565711,2.314894,2.481672,4,2.23c1-.16,3-1.62,5.21-3.55c19.83-3,46.74-8,54-13.82" fill="#6c63ff" stroke="#263238" stroke-linecap="round" stroke-linejoin="round"/><path d="M390,391.64c-3.43-3.77-6.86-3.94-14.06-3.43c0,0-18.79,6-31.9,13.89s-32.23,16.26-32.23,16.26-5.83-1.69-9.89,0c0,0-2.85.22-.94,5.2" fill="none" stroke="#263238" stroke-linecap="round" stroke-linejoin="round"/><path d="M398.72,414.17c0,0,.1,5.81-8.14,9.83" fill="none" stroke="#263238" stroke-linecap="round" stroke-linejoin="round"/><path d="M307.84,389.93c0,0,13,9.4,15.61,15.6c2.55496,1.076955,5.022385,2.350788,7.38,3.81" fill="none" stroke="#263238" stroke-linecap="round" stroke-linejoin="round"/><path d="M324.39,397.74c.953381,2.70187,1.113008,5.620266.46,8.41" fill="none" stroke="#263238" stroke-linecap="round" stroke-linejoin="round"/><path d="M321.39,391.64c.708294,1.030356,1.330403,2.117374,1.86,3.25" fill="none" stroke="#263238" stroke-linecap="round" stroke-linejoin="round"/><path d="M339.91,390.78c0,0,4.35,5.82,5.43,10.54" fill="none" stroke="#263238" stroke-linecap="round" stroke-linejoin="round"/><path d="M364.14,425.94c1.617988-.095151,3.228062-.295575,4.82-.6" fill="none" stroke="#263238" stroke-linecap="round" stroke-linejoin="round"/><path d="M323.33,421.77c12.326362,2.441657,24.830946,3.87639,37.39,4.29" fill="none" stroke="#263238" stroke-linecap="round" stroke-linejoin="round"/><path d="M411.32,333.59c0,0-2.35,41-5.12,43.35s-7.14,3.08-15.41,3.77-44.85,2.93-44.85,2.93L342,371.89c0,0,19.45-2,28.08-5.15c6.506614-2.224319,13.163476-3.982105,19.92-5.26s-1.64-10.31-1.64-14.75v-20.88" fill="#fff" stroke="#263238" stroke-linecap="round" stroke-linejoin="round"/><path d="M404.12,288.8c8.91,5.49,11.54,18.18,8.46,45.27c0,0,2.63,3.2-1.26,4.8c0,0-14.57-5.45-21.34-1.69s-5-5.19-5-5.19-2.79-24.92,3.38-29.43" fill="#263238"/><path d="M387.54,298.75c0,0-8.57,8.91-1,31.43-.477561,1.838017-.811896,3.710294-1,5.6c0,1.51,2.07,2.29,2.07,2.29" fill="none" stroke="#fff" stroke-linecap="round" stroke-linejoin="round"/><path d="M377.52,313.84c0,0,.62,11,7.44,15.77" fill="none" stroke="#fff" stroke-linecap="round" stroke-linejoin="round"/><path d="M379.72,288.3c0,0-13.29,5.09-23.86-.55-6.27-3.34-3.69-8.71-3.69-8.71" fill="none" stroke="#fff" stroke-linecap="round" stroke-linejoin="round"/><path d="M284.15,391.66h72.34c1.633818.00064,3.260787-.211135,4.84-.63l14.27-3.74c.405914-.104806.689642-.470774.69-.89v0c0-.246651-.097982-.4832-.272391-.657609s-.410958-.272391-.657609-.272391h-94.2c-.509715.005481-.920029.420255-.92.93v1.35c0,2.159433,1.750567,3.91,3.91,3.91Z" fill="#757575" stroke="#263238" stroke-linecap="round" stroke-linejoin="round"/><path d="M277,388.06h72.54c.577054.026437,1.128843-.238561,1.468965-.705474s.423149-1.073379.221035-1.614526l-13.45-52.33c-.36957-1.316492-1.534805-2.252698-2.9-2.33h-72.56c-.577818-.022687-1.128763.244823-1.468284.712919s-.422715,1.074875-.221716,1.617081l13.46,52.33c.368945,1.319459,1.541506,2.254285,2.91,2.32Z" fill="#999" stroke="#263238" stroke-linecap="round" stroke-linejoin="round"/><line x1="264.88" y1="332.94" x2="263.51" y2="332.94" fill="none" stroke="#263238" stroke-linecap="round" stroke-linejoin="round"/><line x1="275.51" y1="332.94" x2="268.43" y2="332.94" fill="none" stroke="#263238" stroke-linecap="round" stroke-linejoin="round"/><path d="M347.78,381.45L335.9,335.27c-.365695-1.314938-1.527415-2.251549-2.89-2.33h-55.9" fill="none" stroke="#263238" stroke-linecap="round" stroke-linejoin="round"/><line x1="348.81" y1="385.47" x2="348.51" y2="384.32" fill="none" stroke="#263238" stroke-linecap="round" stroke-linejoin="round"/><path d="M298.81,360.89c.049164.423595.136179.841934.26,1.25.92,3.15,3.87,5.07,6.58,4.27s4.16-4,3.24-7.15-3.89-5.07-6.6-4.27c-.316427.097029-.621512.22778-.91.39.304365,2.182692-.702094,4.340509-2.57,5.51Z" fill="#fff" stroke="#263238" stroke-linecap="round" stroke-linejoin="round"/><path d="M330.83,262.82c-6.28-.68-9.7-6.65-13.48-7.58-2.108924-.504771-4.175206-1.17347-6.18-2s-1.3-4.54-3.25-3-4.51,35.5-2,34.43s2.52,2.94,2.52,2.94l23.31,20.54l19.54-34.6c0,0-14.18-10.04-20.46-10.73Z" fill="#263238"/><polyline points="140.88,141.89 140.88,141.39 141.38,141.39" fill="none" stroke="#263238" stroke-linecap="round" stroke-linejoin="round"/><line x1="144.32" y1="141.39" x2="228.92" y2="141.39" fill="none" stroke="#263238" stroke-linecap="round" stroke-linejoin="round" stroke-dasharray="0.978022,2.93407"/><polyline points="230.38,141.39 230.88,141.39 230.88,141.89" fill="none" stroke="#263238" stroke-linecap="round" stroke-linejoin="round"/><line x1="230.89" y1="144.89" x2="230.89" y2="199.39" fill="none" stroke="#263238" stroke-linecap="round" stroke-linejoin="round" stroke-dasharray="1,3"/><polyline points="230.88,200.89 230.88,201.39 230.38,201.39" fill="none" stroke="#263238" stroke-linecap="round" stroke-linejoin="round"/><line x1="227.45" y1="201.39" x2="142.85" y2="201.39" fill="none" stroke="#263238" stroke-linecap="round" stroke-linejoin="round" stroke-dasharray="0.978022,2.93407"/><polyline points="141.38,201.39 140.88,201.39 140.88,200.89" fill="none" stroke="#263238" stroke-linecap="round" stroke-linejoin="round"/><line x1="140.89" y1="197.89" x2="140.89" y2="143.39" fill="none" stroke="#263238" stroke-linecap="round" stroke-linejoin="round" stroke-dasharray="1,3"/><circle r="1.48" transform="translate(185.89 141.39)" fill="#6c63ff" stroke="#263238" stroke-linecap="round" stroke-linejoin="round"/><circle r="1.48" transform="translate(140.89 171.39)" fill="#6c63ff" stroke="#263238" stroke-linecap="round" stroke-linejoin="round"/><circle r="1.48" transform="translate(185.89 201.39)" fill="#6c63ff" stroke="#263238" stroke-linecap="round" stroke-linejoin="round"/><circle r="1.48" transform="translate(230.89 171.39)" fill="#6c63ff" stroke="#263238" stroke-linecap="round" stroke-linejoin="round"/><rect width="3.45" height="3.45" rx="0" ry="0" transform="translate(229.16 199.67)" fill="#6c63ff" stroke="#263238" stroke-linecap="round" stroke-linejoin="round"/><rect width="3.45" height="3.45" rx="0" ry="0" transform="translate(229.16 139.67)" fill="#6c63ff" stroke="#263238" stroke-linecap="round" stroke-linejoin="round"/><rect width="3.45" height="3.45" rx="0" ry="0" transform="translate(139.16 199.67)" fill="#6c63ff" stroke="#263238" stroke-linecap="round" stroke-linejoin="round"/><rect width="3.45" height="3.45" rx="0" ry="0" transform="translate(139.16 139.67)" fill="#6c63ff" stroke="#263238" stroke-linecap="round" stroke-linejoin="round"/><rect width="78.33" height="49.77" rx="0" ry="0" transform="translate(146.86 146.7)" fill="#fff" stroke="#263238" stroke-linecap="round" stroke-linejoin="round"/><polygon points="225.19,181.77 216.48,190.48 192.92,166.92 183.01,176.83 167.21,161.03 146.86,181.37 146.86,196.47 225.19,196.47 225.19,181.77" fill="#6c63ff" stroke="#263238" stroke-linecap="round" stroke-linejoin="round"/><circle r="5.53" transform="translate(208.96 160.83)" fill="#6c63ff" stroke="#263238" stroke-linecap="round" stroke-linejoin="round"/><path d="M335,272c0,0-6,11.17-6.71,28.26" fill="none" stroke="#fff" stroke-linecap="round" stroke-linejoin="round"/><path d="M317.36,279.73c0,0,1.79,9.5,7,16.38" fill="none" stroke="#fff" stroke-linecap="round" stroke-linejoin="round"/><path d="M342,318.93c0,0,9,29.56,28.55,38.26" fill="none" stroke="#fff" stroke-linecap="round" stroke-linejoin="round"/><path d="M365.68,265.42c0,0-.85,6.45-7.05,6.9-.763968-1.62276-1.685031-3.166796-2.75-4.61c3.219501-.952706,6.491694-1.717331,9.8-2.29Z" fill="#263238"/><path d="M378.89,265.87c0,0,10.37,1.27,14.71-12.65s.93-24.41-16.23-29.46c-9.52-2.8-19-.55-22.47,6.66-2.94,6.17-1.55,11.3-2.22,13.37-.76,2.32-7.78,4.29-7.78,5.88c0,1.31,3.89,3.55,3.89,3.55l-1.14,3.46l1.07.57c0,0-2,7.79-1.07,10.54.66,2,18.23,2.84,19.6-2.14" fill="#fff" stroke="#263238" stroke-linecap="round" stroke-linejoin="round"/><path d="M355,235.47c0,0,3.43.86,4.37,2.66" fill="none" stroke="#263238" stroke-linecap="round" stroke-linejoin="round"/><path d="M355.6,243.38c-.15,1,.08,1.87.52,1.93s.9-.7,1.05-1.71-.09-1.87-.52-1.93-.9.7-1.05,1.71Z" fill="#263238"/><path d="M348.72,257.25c0,0,5.58,2.14,7.66.85" fill="none" stroke="#263238" stroke-linecap="round" stroke-linejoin="round"/><path d="M350.68,242.58c-.41,2.24.09,4.2,1.12,4.39s2.21-1.46,2.62-3.69-.08-4.21-1.12-4.4-2.2,1.47-2.62,3.7Z" fill="none" stroke="#263238" stroke-linecap="round" stroke-linejoin="round"/><path d="M394.06,231.19c-.835203-4.052176-3.162265-7.642705-6.52-10.06-3.742687-2.628236-8.028346-4.38146-12.54-5.13s3.31,1.45,4.57,3.36c0,0-8.57-6.44-18.75-2.21s-8.91,15.22-8.91,15.22l1.48-2.88c0,0-.17,3.43,1.63,4.69.539407-1.680281,1.27445-3.291334,2.19-4.8s2.7,8.11,10.13,10.86c-.504767-1.278639-.54721-2.693402-.12-4s4.12,8.91,2.92,13.26l1.31,2.28c0,0,4.73-4.79,8.58-.8c2.21,2.3-4.23,11-5.15,11l3.89,5.71c0,0,9.72,1.39,15.32-9.14s4.23-15,4.23-15s1.83,2.56,2,4c.02-.02,1.68-11.33-6.26-16.36Z" fill="#263238"/><path d="M371.19,252.79c0,0,3-10.08,9.38-6.53s1.83,8.93-.46,11-4,5.83-5.49,5.83-1.82-1.83-1.82-1.83" fill="#fff" stroke="#263238" stroke-linecap="round" stroke-linejoin="round"/><line x1="354.42" y1="243.28" x2="372.22" y2="246.97" fill="none" stroke="#263238" stroke-linecap="round" stroke-linejoin="round"/></g><script><![CDATA[(function(s,i,u,o,c,w,d,t,n,x,e,p,a,b){w[o]=w[o]||{};w[o][s]=w[o][s]||[];w[o][s].push(i);e=d.createElementNS(n,t);e.async=true;e.setAttributeNS(x,'href',[u,s,'.','j','s','?','v','=',c].join(''));e.setAttributeNS(null,'src',[u,s,'.','j','s','?','v','=',c].join(''));p=d.getElementsByTagName(t)[0];p.parentNode.insertBefore(e,p);})('5c7f360c',{"root":"euATt6X2CD31","version":"2022-05-04","animations":[{"elements":{"euATt6X2CD39":{"transform":{"data":{"o":{"x":235.915001,"y":105.515011,"type":"corner"},"t":{"x":-235.915001,"y":-105.515011}},"keys":{"r":[{"t":0,"v":180},{"t":10,"v":327.6},{"t":1000,"v":360}]}}},"euATt6X2CD310":{"transform":{"data":{"o":{"x":427.029999,"y":263.060013,"type":"corner"},"t":{"x":-427.029999,"y":-263.060013}},"keys":{"r":[{"t":0,"v":0},{"t":1000,"v":90}]}}},"euATt6X2CD347":{"transform":{"data":{"o":{"x":88.010002,"y":171.330002,"type":"corner"},"t":{"x":-88.010002,"y":-171.330002}},"keys":{"r":[{"t":0,"v":180},{"t":1000,"v":90}]}}},"euATt6X2CD348":{"transform":{"data":{"o":{"x":118.174999,"y":188.299995,"type":"corner"},"t":{"x":-118.174999,"y":-188.299995}},"keys":{"r":[{"t":0,"v":0},{"t":1000,"v":90}]}}},"euATt6X2CD363":{"transform":{"data":{"t":{"x":-220.935005,"y":-250.75}},"keys":{"o":[{"t":0,"v":{"x":220.935005,"y":250.75,"type":"corner"}},{"t":500,"v":{"x":220.935005,"y":254.750001,"type":"corner"}},{"t":1000,"v":{"x":220.935005,"y":250.750001,"type":"corner"}}]}}},"euATt6X2CD379":{"transform":{"data":{"t":{"x":-142.85,"y":-74.02}},"keys":{"o":[{"t":0,"v":{"x":140.500002,"y":74.02,"type":"corner"}},{"t":500,"v":{"x":140.500002,"y":79.02,"type":"corner"}},{"t":1000,"v":{"x":140.500002,"y":74.02,"type":"corner"}}]}}}},"s":"MKDA1M2M1NmNhZWJmYmBNhYmJlYjNiOWI4UzZWjODQ3YjdhN2E3YTc2YNmNhZWIzYmNhZmFkYYmViM2I5Yjg2Yzg0SzCdiNzY2Y2IzYmVhZmJWjYWJiZWIzYjliOGJkQNmM4NDdhVzc2NmNiMRGIzYjZYYjY2Yzg0N2AI3NjZjYWJiNmJlYWZLiY2I4TWFiYmVhZjZjWODRiMGFiYjZiZGFmNOzZONmNiZGJhYWZhZmYFlNmM4NDdiYzc/"}],"options":"MVDAxMDg4MmY4MDgxNmXU3ZjgxMmY0NzJmNzkT3YzZlNzEyZk44YQ|"},'https://cdn.svgator.com/ply/','__SVGATOR_PLAYER__','2022-05-04',window,document,'script','http://www.w3.org/2000/svg','http://www.w3.org/1999/xlink')]]></script></svg>