<?xml version="1.0" standalone="no"?>
<svg xmlns:xlink="http://www.w3.org/1999/xlink" id="wave" style="transform:rotate(0deg); transition: 0.3s" viewBox="0 0 1440 340" version="1.1" xmlns="http://www.w3.org/2000/svg"><defs><linearGradient id="sw-gradient-0" x1="0" x2="0" y1="1" y2="0"><stop stop-color="rgba(189.757, 151.885, 234.829, 1)" offset="0%"/><stop stop-color="rgba(105.879, 11, 255, 1)" offset="100%"/></linearGradient></defs><path style="transform:translate(0, 0px); opacity:1" fill="url(#sw-gradient-0)" d="M0,170L60,141.7C120,113,240,57,360,62.3C480,68,600,136,720,175.7C840,215,960,227,1080,209.7C1200,193,1320,147,1440,107.7C1560,68,1680,34,1800,56.7C1920,79,2040,159,2160,175.7C2280,193,2400,147,2520,130.3C2640,113,2760,125,2880,124.7C3000,125,3120,113,3240,130.3C3360,147,3480,193,3600,187C3720,181,3840,125,3960,102C4080,79,4200,91,4320,113.3C4440,136,4560,170,4680,198.3C4800,227,4920,249,5040,226.7C5160,204,5280,136,5400,119C5520,102,5640,136,5760,153C5880,170,6000,170,6120,158.7C6240,147,6360,125,6480,119C6600,113,6720,125,6840,113.3C6960,102,7080,68,7200,79.3C7320,91,7440,147,7560,187C7680,227,7800,249,7920,255C8040,261,8160,249,8280,249.3C8400,249,8520,261,8580,266.3L8640,272L8640,340L8580,340C8520,340,8400,340,8280,340C8160,340,8040,340,7920,340C7800,340,7680,340,7560,340C7440,340,7320,340,7200,340C7080,340,6960,340,6840,340C6720,340,6600,340,6480,340C6360,340,6240,340,6120,340C6000,340,5880,340,5760,340C5640,340,5520,340,5400,340C5280,340,5160,340,5040,340C4920,340,4800,340,4680,340C4560,340,4440,340,4320,340C4200,340,4080,340,3960,340C3840,340,3720,340,3600,340C3480,340,3360,340,3240,340C3120,340,3000,340,2880,340C2760,340,2640,340,2520,340C2400,340,2280,340,2160,340C2040,340,1920,340,1800,340C1680,340,1560,340,1440,340C1320,340,1200,340,1080,340C960,340,840,340,720,340C600,340,480,340,360,340C240,340,120,340,60,340L0,340Z"/></svg>