<?xml version="1.0" standalone="no"?>
<svg xmlns:xlink="http://www.w3.org/1999/xlink" id="wave" style="transform:rotate(0deg); transition: 0.3s" viewBox="0 0 1440 340" version="1.1" xmlns="http://www.w3.org/2000/svg"><defs><linearGradient id="sw-gradient-0" x1="0" x2="0" y1="1" y2="0"><stop stop-color="rgba(189.757, 151.885, 234.829, 1)" offset="0%"/><stop stop-color="rgba(105.879, 11, 255, 1)" offset="100%"/></linearGradient></defs><path style="transform:translate(0, 0px); opacity:1" fill="url(#sw-gradient-0)" d="M0,272L1440,102L2880,0L4320,272L5760,272L7200,68L8640,170L10080,68L11520,238L12960,272L14400,204L15840,204L17280,34L18720,34L20160,0L21600,170L23040,170L24480,0L25920,0L27360,204L28800,68L30240,102L31680,68L33120,238L34560,68L34560,340L33120,340L31680,340L30240,340L28800,340L27360,340L25920,340L24480,340L23040,340L21600,340L20160,340L18720,340L17280,340L15840,340L14400,340L12960,340L11520,340L10080,340L8640,340L7200,340L5760,340L4320,340L2880,340L1440,340L0,340Z"/></svg>