<?xml version="1.0" standalone="no"?>
<!DOCTYPE svg PUBLIC "-//W3C//DTD SVG 20010904//EN"
 "http://www.w3.org/TR/2001/REC-SVG-20010904/DTD/svg10.dtd">
<svg version="1.0" xmlns="http://www.w3.org/2000/svg"
 width="100.000000pt" height="100.000000pt" viewBox="0 0 100.000000 100.000000"
 preserveAspectRatio="xMidYMid meet">
<metadata>
Created by potrace 1.14, written by Peter Selinger 2001-2017
</metadata>
<g transform="translate(0.000000,100.000000) scale(0.100000,-0.100000)"
fill="#000000" stroke="none">
<path d="M0 500 l0 -500 500 0 500 0 0 500 0 500 -500 0 -500 0 0 -500z m975
0 l0 -475 -475 0 -475 0 -3 465 c-1 256 0 471 3 478 3 10 104 12 477 10 l473
-3 0 -475z"/>
<path d="M437 893 c-4 -3 -7 -28 -7 -55 l0 -49 28 19 c15 11 45 36 67 56 l40
35 -61 1 c-33 0 -64 -3 -67 -7z"/>
<path d="M492 817 l-64 -52 6 -125 c3 -69 6 -158 6 -197 l0 -73 65 0 65 0 0
250 c0 138 -3 250 -7 249 -5 0 -37 -23 -71 -52z"/>
<path d="M120 275 c0 -8 7 -15 15 -15 8 0 15 7 15 15 0 8 -7 15 -15 15 -8 0
-15 -7 -15 -15z"/>
<path d="M650 205 c0 -69 3 -85 15 -85 12 0 15 16 15 85 0 69 -3 85 -15 85
-12 0 -15 -16 -15 -85z"/>
<path d="M855 258 c-10 -21 -12 -34 -5 -36 5 -2 10 -26 10 -53 0 -37 4 -49 15
-49 11 0 15 12 15 50 0 38 4 50 15 50 21 0 19 16 -2 25 -17 6 -17 7 0 19 24
18 21 26 -7 26 -18 0 -29 -9 -41 -32z"/>
<path d="M340 265 c0 -9 -7 -18 -16 -22 -15 -6 -15 -7 -1 -18 9 -6 17 -30 19
-56 3 -40 6 -44 31 -47 29 -4 37 12 12 22 -21 8 -19 66 3 82 16 13 16 13 0 14
-11 0 -18 8 -18 20 0 11 -7 20 -15 20 -8 0 -15 -7 -15 -15z"/>
<path d="M231 241 c-7 -5 -22 -6 -32 -4 -17 5 -19 -1 -19 -56 0 -54 2 -61 20
-61 17 0 20 7 20 45 0 32 5 47 15 52 22 8 27 0 32 -52 8 -65 33 -62 33 4 0 66
-30 97 -69 72z"/>
<path d="M450 243 c-39 -14 -54 -78 -24 -107 23 -23 81 -21 94 4 13 23 0 27
-30 8 -16 -10 -23 -10 -37 5 -16 16 -15 17 30 17 39 0 47 3 47 18 0 37 -44 67
-80 55z m40 -38 c0 -16 -35 -21 -44 -6 -8 12 4 21 26 21 10 0 18 -7 18 -15z"/>
<path d="M610 240 c-8 -5 -25 -7 -37 -3 -22 5 -23 3 -23 -56 0 -54 2 -61 20
-61 17 0 20 7 20 39 0 28 6 42 21 53 25 16 23 43 -1 28z"/>
<path d="M729 232 c-25 -21 -30 -71 -9 -96 16 -20 74 -21 90 -1 17 21 7 29
-18 16 -21 -11 -52 -5 -52 10 0 5 20 9 45 9 53 0 59 17 20 55 -29 30 -45 31
-76 7z m59 -29 c2 -8 -6 -13 -22 -13 -25 0 -33 10 -19 24 10 10 36 3 41 -11z"/>
<path d="M120 180 c0 -47 3 -60 15 -60 12 0 15 13 15 60 0 47 -3 60 -15 60
-12 0 -15 -13 -15 -60z"/>
</g>
</svg>
