<?xml version="1.0" encoding="UTF-8" standalone="no"?><!DOCTYPE svg PUBLIC "-//W3C//DTD SVG 1.1//EN" "http://www.w3.org/Graphics/SVG/1.1/DTD/svg11.dtd"><svg width="100%" height="100%" viewBox="0 0 585 585" version="1.1" xmlns="http://www.w3.org/2000/svg" xmlns:xlink="http://www.w3.org/1999/xlink" xml:space="preserve" xmlns:serif="http://www.serif.com/" style="fill-rule:evenodd;clip-rule:evenodd;stroke-linecap:round;stroke-linejoin:round;stroke-miterlimit:1.5;"><g><g><g><path d="M276.525,126.552l7.714,-45.274c0.739,-4.335 4.495,-7.505 8.893,-7.505c6.447,-0 15.64,-0 22.056,-0c4.349,-0 8.078,3.102 8.87,7.377l8.195,44.244c19.749,3.062 38.306,9.752 54.974,19.37l33.734,-29.573c3.356,-2.943 8.36,-2.988 11.769,-0.106c4.877,4.122 11.75,9.931 16.606,14.036c3.375,2.853 4.186,7.732 1.915,11.524l-22.863,38.167c12.144,14.057 21.876,30.253 28.552,47.942l46.524,-0.561c4.383,-0.053 8.17,3.052 8.976,7.361c1.188,6.35 2.886,15.426 4.068,21.745c0.796,4.259 -1.548,8.483 -5.584,10.06l-43.771,17.104c0,0.176 0.001,0.352 0.001,0.528c-0,18.344 -3.104,35.968 -8.812,52.37l38.484,29.211c3.553,2.698 4.602,7.587 2.466,11.504c-3.058,5.608 -7.37,13.517 -10.414,19.101c-2.115,3.878 -6.726,5.655 -10.896,4.198l-46.276,-16.173c-11.642,14.389 -25.737,26.716 -41.645,36.34l11.233,44.895c1.089,4.354 -1.188,8.846 -5.342,10.541c-5.891,2.405 -14.16,5.78 -20.026,8.174c-4.116,1.68 -8.843,0.111 -11.136,-3.698l-24.31,-40.363c-10.583,2.217 -21.561,3.384 -32.81,3.384c-7.861,0 -15.589,-0.57 -23.134,-1.669l-20.244,40.91c-1.959,3.958 -6.497,5.916 -10.721,4.625c-6.149,-1.879 -14.885,-4.548 -21.005,-6.418c-4.179,-1.278 -6.842,-5.366 -6.32,-9.705l5.642,-46.889c-16.324,-8.839 -30.935,-20.444 -43.204,-34.186l-41.543,19.123c-4.026,1.853 -8.801,0.507 -11.267,-3.175c-3.57,-5.331 -8.63,-12.886 -12.184,-18.192c-2.44,-3.644 -1.906,-8.515 1.265,-11.543l34.633,-33.074c-6.661,-16.602 -10.61,-34.583 -11.295,-53.39l-41.565,-10.9c-4.274,-1.121 -7.107,-5.173 -6.692,-9.572c0.603,-6.4 1.46,-15.49 2.061,-21.86c0.41,-4.352 3.882,-7.783 8.238,-8.143l45.312,-3.74c5.625,-17.693 14.257,-34.053 25.296,-48.479l-26.824,-35.223c-2.72,-3.572 -2.399,-8.6 0.752,-11.797c4.464,-4.53 10.73,-10.888 15.176,-15.4c3.122,-3.168 8.087,-3.587 11.697,-0.988l37.849,27.255c16.976,-11.276 36.236,-19.389 56.932,-23.493Zm31.145,50.093c58.694,-0 106.346,47.652 106.346,106.346c-0,58.694 -47.652,106.346 -106.346,106.346c-58.695,0 -106.347,-47.652 -106.347,-106.346c0,-58.694 47.652,-106.346 106.347,-106.346Z" style="fill:#fcb0b0;stroke:#000;stroke-width:6.4px;"/><text x="242.004px" y="312.581px" style="font-family:'Calibri-Bold', 'Calibri', sans-serif;font-weight:700;font-size:102.326px;">API</text></g><path d="M308.329,531.985c11.498,-0 20.833,9.335 20.833,20.833c0,11.498 -9.335,20.833 -20.833,20.833c-11.498,0 -20.833,-9.335 -20.833,-20.833c-0,-11.498 9.335,-20.833 20.833,-20.833Zm169.658,-86.915c11.499,-0 20.834,9.335 20.834,20.833c-0,11.498 -9.335,20.834 -20.834,20.834c-11.498,-0 -20.833,-9.336 -20.833,-20.834c-0,-11.498 9.335,-20.833 20.833,-20.833Zm-440.491,-94.37c11.498,-0 20.833,9.335 20.833,20.833c0,11.498 -9.335,20.833 -20.833,20.833c-11.499,0 -20.834,-9.335 -20.834,-20.833c0,-11.498 9.335,-20.833 20.834,-20.833Zm509.932,-224.342c11.498,0 20.834,9.335 20.834,20.834c-0,11.498 -9.336,20.833 -20.834,20.833c-11.498,-0 -20.833,-9.335 -20.833,-20.833c-0,-11.499 9.335,-20.834 20.833,-20.834Zm-478.682,-115.085c17.247,-0 31.25,14.002 31.25,31.25c-0,17.247 -14.003,31.25 -31.25,31.25c-17.248,-0 -31.25,-14.003 -31.25,-31.25c-0,-17.248 14.002,-31.25 31.25,-31.25Z" style="fill:#5928e5;stroke:#000;stroke-width:3.14px;"/><path d="M90.648,64.727l70.827,64.639" style="fill:none;stroke:#000;stroke-width:5.99px;"/><path d="M58.329,361.217l92.622,-45.946" style="fill:none;stroke:#000;stroke-width:6.25px;"/><path d="M463.265,450.923l-48.13,-49.504" style="fill:none;stroke:#000;stroke-width:5.99px;"/><path d="M526.595,157.039l-76.283,47.677" style="fill:none;stroke:#000;stroke-width:6.23px;"/><path d="M308.329,445.07l0,86.915" style="fill:none;stroke:#000;stroke-width:6.25px;"/></g><rect x="-0" y="-0" width="584.924" height="584.924" style="fill:none;"/></g></svg>