<?xml version="1.0" encoding="UTF-8" standalone="no"?><!DOCTYPE svg PUBLIC "-//W3C//DTD SVG 1.1//EN" "http://www.w3.org/Graphics/SVG/1.1/DTD/svg11.dtd"><svg width="100%" height="100%" viewBox="0 0 422 398" version="1.1" xmlns="http://www.w3.org/2000/svg" xmlns:xlink="http://www.w3.org/1999/xlink" xml:space="preserve" xmlns:serif="http://www.serif.com/" style="fill-rule:evenodd;clip-rule:evenodd;stroke-linecap:round;stroke-linejoin:round;stroke-miterlimit:1.5;"><g><path d="M418.906,78.57c0,-16.098 -13.069,-29.167 -29.166,-29.167l-358.334,0c-16.097,0 -29.166,13.069 -29.166,29.167l-0,233.333c-0,16.098 13.069,29.167 29.166,29.167l358.334,-0c16.097,-0 29.166,-13.069 29.166,-29.167l0,-233.333Z" style="fill:#e6ddff;stroke:#000;stroke-width:4.48px;"/><path d="M418.906,288.204l-416.666,0l-0,25.095c-0,15.327 12.443,27.771 27.77,27.771l358.431,-0c16.814,-0 30.465,-13.651 30.465,-30.466l0,-22.4Z" style="fill:#5928e5;stroke:#000;stroke-width:3.31px;"/><rect x="158.31" y="341.07" width="104.525" height="40.743" style="fill:url(#_Linear1);stroke:#000;stroke-width:3.5px;"/><path d="M291.551,388.687c0,-3.794 -3.08,-6.875 -6.875,-6.875l-148.207,0c-3.794,0 -6.874,3.081 -6.874,6.875c-0,3.795 3.08,6.875 6.874,6.875l148.207,0c3.795,0 6.875,-3.08 6.875,-6.875Z" style="fill:#5928e5;stroke:#000;stroke-width:4.17px;"/><path d="M31.998,123.745l115.536,-1.122" style="fill:none;stroke:#000;stroke-width:8.33px;"/><path d="M31.998,136.61l107.083,-1.04" style="fill:none;stroke:#000;stroke-width:8.04px;"/><path d="M32.007,149.474l99.248,-0.963" style="fill:none;stroke:#000;stroke-width:7.78px;"/><path d="M32.025,162.339l115.509,-1.122" style="fill:none;stroke:#000;stroke-width:8.33px;"/><path d="M32.025,195.236l134.434,-1.305" style="fill:none;stroke:#000;stroke-width:9.03px;"/><path d="M31.998,208.287l129.991,-1.262" style="fill:none;stroke:#000;stroke-width:8.86px;"/><g><path d="M246.267,36.47l5.026,-29.497c0.481,-2.824 2.928,-4.89 5.793,-4.89c4.201,0 10.19,0 14.371,0c2.833,0 5.263,2.021 5.778,4.807l5.339,28.825c12.867,1.995 24.957,6.354 35.817,12.621l21.978,-19.268c2.187,-1.917 5.447,-1.947 7.668,-0.069c3.177,2.685 7.655,6.47 10.819,9.144c2.199,1.86 2.727,5.038 1.247,7.509l-14.895,24.866c7.912,9.159 14.253,19.711 18.602,31.235l30.311,-0.366c2.856,-0.034 5.323,1.989 5.848,4.796c0.774,4.138 1.88,10.051 2.65,14.167c0.519,2.775 -1.008,5.528 -3.638,6.555l-28.517,11.143c0,0.115 0,0.23 0,0.344c0,11.952 -2.022,23.434 -5.74,34.12l25.073,19.032c2.315,1.757 2.997,4.943 1.606,7.494c-1.992,3.654 -4.801,8.807 -6.785,12.445c-1.378,2.527 -4.382,3.685 -7.099,2.735l-30.149,-10.537c-7.585,9.375 -16.768,17.406 -27.132,23.677l7.318,29.249c0.709,2.837 -0.774,5.763 -3.481,6.868c-3.838,1.567 -9.225,3.765 -13.047,5.326c-2.682,1.094 -5.761,0.072 -7.255,-2.41l-15.839,-26.297c-6.894,1.444 -14.047,2.205 -21.376,2.205c-5.121,-0 -10.156,-0.371 -15.072,-1.088l-13.189,26.653c-1.277,2.58 -4.233,3.855 -6.985,3.014c-4.006,-1.224 -9.698,-2.963 -13.685,-4.182c-2.723,-0.832 -4.458,-3.496 -4.117,-6.322l3.675,-30.549c-10.635,-5.759 -20.154,-13.32 -28.148,-22.273l-27.066,12.459c-2.623,1.207 -5.734,0.33 -7.341,-2.068c-2.326,-3.474 -5.622,-8.396 -7.937,-11.853c-1.59,-2.374 -1.243,-5.547 0.824,-7.521l22.564,-21.548c-4.34,-10.816 -6.913,-22.531 -7.359,-34.784l-27.08,-7.102c-2.785,-0.73 -4.631,-3.37 -4.36,-6.236c0.393,-4.17 0.951,-10.092 1.342,-14.242c0.267,-2.835 2.529,-5.071 5.368,-5.305l29.521,-2.437c3.665,-11.528 9.289,-22.186 16.481,-31.585l-17.476,-22.948c-1.772,-2.327 -1.564,-5.603 0.489,-7.686c2.909,-2.952 6.991,-7.094 9.888,-10.033c2.034,-2.064 5.269,-2.338 7.62,-0.644l24.66,17.757c11.06,-7.347 23.608,-12.633 37.092,-15.306Zm20.291,32.636c38.24,0 69.286,31.046 69.286,69.286c0,38.241 -31.046,69.287 -69.286,69.287c-38.24,-0 -69.286,-31.046 -69.286,-69.287c-0,-38.24 31.046,-69.286 69.286,-69.286Z" style="fill:#fcb0b0;stroke:#000;stroke-width:4.17px;"/><text x="204.146px" y="157.671px" style="font-family:'Calibri-Bold', 'Calibri', sans-serif;font-weight:700;font-size:66.667px;">CMS</text></g></g><defs><linearGradient id="_Linear1" x1="0" y1="0" x2="1" y2="0" gradientUnits="userSpaceOnUse" gradientTransform="matrix(2.49476e-15,40.7426,-40.7426,2.49476e-15,210.573,341.07)"><stop offset="0" style="stop-color:#1a0653;stop-opacity:1"/><stop offset="1" style="stop-color:#5928e5;stop-opacity:1"/></linearGradient></defs></svg>