<?xml version="1.0" encoding="UTF-8" standalone="no"?><!DOCTYPE svg PUBLIC "-//W3C//DTD SVG 1.1//EN" "http://www.w3.org/Graphics/SVG/1.1/DTD/svg11.dtd"><svg width="100%" height="100%" viewBox="0 0 417 417" version="1.1" xmlns="http://www.w3.org/2000/svg" xmlns:xlink="http://www.w3.org/1999/xlink" xml:space="preserve" xmlns:serif="http://www.serif.com/" style="fill-rule:evenodd;clip-rule:evenodd;stroke-linejoin:round;stroke-miterlimit:2;"><clipPath id="_clip1"><rect id="ecommerce.svg" x="0" y="0" width="416.667" height="416.667"/></clipPath><g clip-path="url(#_clip1)"><path d="M395.833,67.546l0,286.946l-375,0l0,-286.946c0,-13.184 10.661,-23.845 23.845,-23.845l327.392,0c13.103,0.082 23.763,10.742 23.763,23.845Z" style="fill:#fff;fill-rule:nonzero;"/><path d="M395.915,67.627l-0,286.947l-23.763,-0l-0,-286.947c-0,-13.184 -10.661,-23.844 -23.845,-23.844l23.763,-0c13.184,-0 23.845,10.66 23.845,23.844Z" style="fill:#ededed;fill-rule:nonzero;"/><path d="M44.515,330.811l-0,-263.265c-0,-3.663 2.93,-6.592 6.592,-6.592l314.372,-0c3.662,-0 6.591,2.929 6.591,6.592l0,263.183l-327.555,0l-0,0.082Z" style="fill:#e3d3fd;fill-rule:nonzero;"/><path d="M271.647,162.191l0,9.033c0,2.034 -1.627,3.743 -3.743,3.743l-27.1,0c-2.034,0 -3.743,-1.627 -3.743,-3.743l-0,-9.033c-0,-2.035 1.627,-3.744 3.743,-3.744l27.181,0c2.035,0.082 3.662,1.709 3.662,3.744Z" style="fill:#fc8a8a;fill-rule:nonzero;"/><path d="M271.647,162.191l0,9.033c0,2.034 -1.627,3.743 -3.743,3.743l-7.487,0c2.034,0 3.743,-1.627 3.743,-3.743l0,-9.033c0,-2.035 -1.627,-3.744 -3.743,-3.744l7.487,0c2.116,0.082 3.743,1.709 3.743,3.744Z" style="fill:#f96364;fill-rule:nonzero;"/><path d="M248.291,174.967l-7.487,0c-2.034,0 -3.743,-1.627 -3.743,-3.662l-0,-9.033c-0,-2.034 1.627,-3.743 3.743,-3.743l7.487,-0c-2.034,-0 -3.743,1.627 -3.743,3.743l-0,9.033c0.081,1.953 1.709,3.662 3.743,3.662Z" style="fill:#fcb0b0;fill-rule:nonzero;"/><path d="M126.383,296.468c0,7.406 -6.022,13.428 -13.427,13.428c-7.406,-0 -13.428,-6.022 -13.428,-13.428c-0,-7.406 6.022,-13.428 13.428,-13.428c7.405,0.082 13.427,6.104 13.427,13.428Zm71.371,0c-0,7.406 -6.022,13.428 -13.428,13.428c-7.405,-0 -13.428,-6.022 -13.428,-13.428c0,-7.406 6.023,-13.428 13.428,-13.428c7.406,0.082 13.428,6.104 13.428,13.428Z" style="fill:#a8b1b3;fill-rule:nonzero;"/><path d="M126.383,296.468c0,7.406 -6.022,13.428 -13.427,13.428c-5.697,-0 -10.742,-3.581 -12.614,-8.952c6.998,2.441 14.648,-1.221 17.09,-8.219c1.058,-2.849 0.976,-6.023 -0,-8.952c5.371,2.034 8.951,7.08 8.951,12.695Zm71.371,0c-0,7.406 -6.022,13.428 -13.428,13.428c-5.696,-0 -10.742,-3.581 -12.614,-8.952c6.999,2.441 14.649,-1.221 17.09,-8.219c1.058,-2.93 1.058,-6.023 0,-8.952c5.371,2.034 8.952,7.08 8.952,12.695Z" style="fill:#7c8b8e;fill-rule:nonzero;"/><path d="M218.669,184.082l-25.065,80.566l-80.892,0c-3.337,0 -6.348,-2.197 -7.325,-5.452l-20.263,-65.104c-1.221,-4.069 1.058,-8.382 5.127,-9.684c0.732,-0.245 1.464,-0.326 2.278,-0.326l126.14,0Z" style="fill:#5928e5;fill-rule:nonzero;"/><path d="M218.669,184.082l-25.065,80.566l-13.998,0l25.147,-80.566l13.916,0Z" style="fill:#5022d3;fill-rule:nonzero;"/><path d="M126.709,264.648l-13.916,0c-3.337,0 -6.348,-2.197 -7.324,-5.452l-20.264,-65.104c-1.302,-4.069 0.977,-8.382 5.127,-9.684c0.732,-0.245 1.546,-0.326 2.279,-0.326l13.916,0c-4.232,0 -7.731,3.499 -7.731,7.731c-0,0.733 0.081,1.546 0.325,2.279l20.264,65.104c0.976,3.255 3.906,5.452 7.324,5.452Z" style="fill:#7342ff;fill-rule:nonzero;"/><path d="M267.985,155.192l-27.181,0c-3.825,0 -6.999,3.093 -6.999,6.999l0,1.302l-3.499,-0c-5.127,-0 -9.684,3.336 -11.23,8.301l-2.849,9.114l-123.779,0c-6.022,0 -10.986,4.883 -10.986,10.987c-0,1.139 0.162,2.197 0.488,3.255l20.264,65.104c1.383,4.557 5.696,7.731 10.498,7.731l76.416,0l-3.5,11.23c-0.163,0.407 -0.569,0.733 -0.976,0.733l-71.696,-0c-9.196,-0 -16.683,7.487 -16.683,16.683c-0,9.196 7.487,16.683 16.683,16.683c9.196,-0 16.683,-7.487 16.683,-16.683c-0,-3.662 -1.302,-7.243 -3.581,-10.173l45.166,0c-2.279,2.93 -3.499,6.429 -3.581,10.173c0,9.196 7.406,16.683 16.602,16.764c9.196,0 16.683,-7.405 16.764,-16.601c0,-6.429 -3.581,-12.207 -9.359,-15.056c0.082,-0.162 0.163,-0.407 0.245,-0.569l33.447,-107.341c0.651,-2.197 2.685,-3.743 5.045,-3.743l3.5,-0l-0,1.302c-0,3.825 3.092,6.998 6.998,6.998l27.1,0c3.825,0 6.999,-3.092 6.999,-6.998l-0,-9.033c-0.082,-3.988 -3.174,-7.081 -6.999,-7.162Zm-159.505,103.027l-20.264,-65.104c-0.732,-2.36 0.57,-4.883 2.93,-5.615c0.407,-0.163 0.895,-0.163 1.302,-0.163l121.826,0l-23.031,74.056l-78.45,0c-2.035,0 -3.744,-1.302 -4.313,-3.174Zm4.476,48.422c-5.616,-0 -10.173,-4.558 -10.173,-10.173c0,-5.615 4.557,-10.172 10.173,-10.172c5.615,-0 10.172,4.557 10.172,10.172c0,5.615 -4.557,10.173 -10.172,10.173Zm71.37,-0c-5.615,-0 -10.172,-4.558 -10.172,-10.173c-0,-5.615 4.557,-10.172 10.172,-10.172c5.615,-0 10.173,4.557 10.173,10.172c-0,5.615 -4.558,10.173 -10.173,10.173Zm84.147,-135.417c0,0.244 -0.244,0.488 -0.488,0.488l-27.1,0c-0.244,0 -0.488,-0.163 -0.488,-0.488l0,-9.033c0,-0.244 0.244,-0.489 0.488,-0.489l27.181,0c0.245,0 0.489,0.245 0.489,0.489l-0.082,9.033Z" style="fill:#333;fill-rule:nonzero;"/><path d="M151.693,249.674c-1.791,0 -3.256,-1.464 -3.256,-3.255l0,-44.108c0,-1.79 1.465,-3.255 3.256,-3.255c1.79,-0 3.255,1.465 3.255,3.255l-0,44.108c-0,1.791 -1.465,3.255 -3.255,3.255Zm25.39,0c-0.162,0 -0.325,0 -0.569,-0.081c-1.791,-0.325 -3.011,-1.953 -2.686,-3.743l7.324,-44.108c0.244,-1.791 1.872,-3.012 3.662,-2.849c1.791,0.244 3.012,1.872 2.849,3.662l-0,0.244l-7.324,44.109c-0.326,1.627 -1.709,2.766 -3.256,2.766Zm-50.7,0c-1.627,0 -2.929,-1.139 -3.173,-2.766l-7.243,-44.109c-0.244,-1.79 1.058,-3.417 2.848,-3.662c1.709,-0.244 3.255,0.896 3.581,2.605l7.243,44.108c0.325,1.79 -0.896,3.418 -2.686,3.743c-0.244,0.081 -0.407,0.081 -0.57,0.081Zm205.567,-44.108l-67.464,0c-1.791,0 -3.256,-1.464 -3.256,-3.255c0,-1.79 1.465,-3.255 3.256,-3.255l67.464,-0c1.79,-0 3.255,1.465 3.255,3.255c0,1.791 -1.465,3.255 -3.255,3.255Zm-0,26.937l-81.38,0c-1.791,0 -3.256,-1.465 -3.256,-3.255c0,-1.79 1.465,-3.255 3.256,-3.255l81.38,-0c1.79,-0 3.255,1.465 3.255,3.255c0,1.79 -1.465,3.255 -3.255,3.255Zm-0,26.937l-95.296,0c-1.791,0 -3.256,-1.465 -3.256,-3.255c0,-1.79 1.465,-3.255 3.256,-3.255l95.296,-0c1.79,-0 3.255,1.465 3.255,3.255c0,1.79 -1.465,3.255 -3.255,3.255Zm-0,26.937l-109.294,-0c-1.79,-0 -3.255,-1.465 -3.255,-3.255c0,-1.791 1.465,-3.255 3.255,-3.255l109.212,-0c1.791,-0 3.256,1.464 3.256,3.255c-0,1.79 -1.384,3.255 -3.174,3.255Z" style="fill:#333;fill-rule:nonzero;"/><path d="M414.225,354.492l0,16.032c0,13.428 -10.905,24.333 -24.332,24.333l-363.119,-0c-13.428,-0.082 -24.333,-10.987 -24.333,-24.414l0,-15.951l411.784,0Z" style="fill:#d5d3d9;fill-rule:nonzero;"/><path d="M50.537,394.775l-23.763,0c-13.428,0 -24.333,-10.905 -24.333,-24.332l0,-15.951l23.845,0l-0,15.951c-0,13.427 10.823,24.332 24.251,24.332Z" style="fill:#ededed;fill-rule:nonzero;"/><path d="M414.225,354.574l0,15.95c0,13.428 -10.905,24.333 -24.332,24.333l-23.845,-0c13.428,-0 24.333,-10.905 24.333,-24.333l-0,-15.95l23.844,-0Z" style="fill:#a8b2b4;fill-rule:nonzero;"/><path d="M267.415,354.574l0,11.474c0,3.988 -3.255,7.243 -7.242,7.243l-103.76,0c-3.988,0 -7.243,-3.255 -7.243,-7.243l-0,-11.474l118.245,-0Z" style="fill:#5928e5;fill-rule:nonzero;"/><path d="M267.497,354.574l-0,11.474c-0,3.988 -3.255,7.162 -7.243,7.162l-19.287,-0c3.987,-0 7.161,-3.256 7.161,-7.162l0,-11.474l19.369,-0Z" style="fill:#4922b7;fill-rule:nonzero;"/><path d="M61.93,96.029l58.594,-0l0,12.288c0,16.195 -13.102,29.297 -29.297,29.297c-16.194,-0 -29.297,-13.102 -29.297,-29.297l0,-12.288Zm292.806,-0l0,12.288c0.082,16.195 -12.939,29.378 -29.134,29.46c-16.194,0.081 -29.378,-12.94 -29.459,-29.134l-0,-12.614l58.593,-0Zm-175.7,-0l58.594,-0l0,12.288c0,16.195 -13.102,29.297 -29.297,29.297c-16.194,-0 -29.297,-13.102 -29.297,-29.297l0,-12.288Z" style="fill:#fedd8e;fill-rule:nonzero;"/><path d="M3.337,96.029l58.593,-0l0,12.288c0,16.195 -13.102,29.297 -29.297,29.297c-16.194,-0 -29.296,-13.102 -29.296,-29.297l-0,-12.288Zm234.293,-0l58.594,-0l-0,12.288c-0,16.195 -13.102,29.297 -29.297,29.297c-16.195,-0 -29.297,-13.102 -29.297,-29.297l0,-12.288Zm-117.187,-0l58.593,-0l0,12.288c0,16.195 -13.102,29.297 -29.296,29.297c-16.195,-0 -29.297,-13.102 -29.297,-29.297l-0,-12.288Zm292.887,-0l0,12.288c0,16.195 -13.102,29.297 -29.297,29.297c-16.194,-0 -29.297,-13.102 -29.297,-29.297l0,-12.288l58.594,-0Zm-332.845,-74.138l-18.555,74.138l-58.593,-0l21.403,-60.791c2.848,-7.976 10.335,-13.347 18.88,-13.347l36.865,0Z" style="fill:#fc8a8a;fill-rule:nonzero;"/><path d="M131.673,21.891l-11.23,74.138l-58.513,-0l18.555,-74.138l51.188,0Z" style="fill:#fedd8e;fill-rule:nonzero;"/><path d="M182.78,21.891l-3.744,74.138l-58.593,-0l11.23,-74.138l51.107,0Z" style="fill:#fc8a8a;fill-rule:nonzero;"/><path d="M233.887,21.891l3.743,74.138l-58.594,-0l3.744,-74.138l51.107,0Z" style="fill:#fedd8e;fill-rule:nonzero;"/><path d="M284.993,21.891l11.231,74.138l-58.594,-0l-3.743,-74.138l51.106,0Z" style="fill:#fc8a8a;fill-rule:nonzero;"/><path d="M336.182,21.891l18.554,74.138l-58.512,-0l-11.231,-74.138l51.189,0Z" style="fill:#fedd8e;fill-rule:nonzero;"/><path d="M392.008,35.238l21.403,60.791l-58.593,-0l-18.636,-74.138l36.946,0c8.464,0 16.032,5.371 18.88,13.347Z" style="fill:#fc8a8a;fill-rule:nonzero;"/><path d="M98.307,136.719c-2.36,0.569 -4.72,0.814 -7.08,0.814c-16.194,-0 -29.297,-13.103 -29.297,-29.297l0,-12.207l14.16,-0l0,12.288c0,13.428 9.115,25.147 22.217,28.402Zm234.294,-0c-2.36,0.569 -4.72,0.814 -7.08,0.814c-16.195,-0 -29.297,-13.103 -29.297,-29.297l-0,-12.207l14.16,-0l0,12.288c0,13.428 9.115,25.147 22.217,28.402Zm-117.188,-0c-2.36,0.569 -4.72,0.814 -7.08,0.814c-16.194,-0 -29.297,-13.103 -29.297,-29.297l0,-12.207l14.161,-0l-0,12.288c-0,13.428 9.196,25.147 22.216,28.402Z" style="fill:#fee9b4;fill-rule:nonzero;"/><path d="M39.714,136.719c-2.36,0.569 -4.721,0.814 -7.081,0.814c-16.194,-0 -29.296,-13.103 -29.296,-29.297l-0,-12.207l14.16,-0l-0,12.288c-0,13.428 9.114,25.147 22.217,28.402Zm234.293,-0c-2.36,0.569 -4.72,0.814 -7.08,0.814c-16.195,-0 -29.297,-13.103 -29.297,-29.297l0,-12.207l14.16,-0l0,12.288c0,13.428 9.196,25.147 22.217,28.402Zm-117.187,-0c-2.36,0.569 -4.72,0.814 -7.08,0.814c-16.195,-0 -29.297,-13.103 -29.297,-29.297l-0,-12.207l14.16,-0l-0,12.288c-0,13.428 9.196,25.147 22.217,28.402Zm234.375,-0c-2.36,0.569 -4.72,0.814 -7.08,0.814c-16.195,-0 -29.297,-13.103 -29.297,-29.297l-0,-12.207l14.16,-0l-0,12.288c-0,13.428 9.114,25.147 22.217,28.402Zm-347.657,-114.828l-26.041,74.138l-14.16,-0l21.403,-60.791c2.767,-7.976 10.335,-13.347 18.798,-13.347Z" style="fill:#fcb0b0;fill-rule:nonzero;"/><path d="M94.645,21.891l-18.555,74.138l-14.16,-0l18.555,-74.138l14.16,0Z" style="fill:#fee9b4;fill-rule:nonzero;"/><path d="M145.752,21.891l-11.149,74.138l-14.16,-0l11.23,-74.138l14.079,0Z" style="fill:#fcb0b0;fill-rule:nonzero;"/><path d="M196.94,21.891l-3.743,74.138l-14.161,-0l3.744,-74.138l14.16,0Z" style="fill:#fee9b4;fill-rule:nonzero;"/><path d="M251.79,96.029l-14.16,-0l-3.743,-74.138l14.16,0l3.743,74.138Z" style="fill:#fcb0b0;fill-rule:nonzero;"/><path d="M310.384,96.029l-14.16,-0l-11.149,-74.138l14.079,0l11.23,74.138Z" style="fill:#fee9b4;fill-rule:nonzero;"/><path d="M368.896,96.029l-14.16,-0l-18.554,-74.138l14.16,0l18.554,74.138Z" style="fill:#fcb0b0;fill-rule:nonzero;"/><path d="M120.443,96.029l-0,12.288c-0,16.195 -13.103,29.297 -29.297,29.297c-2.36,-0 -4.72,-0.244 -7.08,-0.814c5.127,-1.302 9.847,-3.988 13.59,-7.731c5.534,-5.452 8.627,-12.939 8.627,-20.671l-0,-12.369l14.16,-0Zm234.293,-0l0,12.288c0,16.195 -13.102,29.297 -29.297,29.297c-2.36,-0 -4.72,-0.244 -7.08,-0.814c5.127,-1.302 9.847,-3.988 13.591,-7.731c5.534,-5.452 8.626,-12.939 8.626,-20.671l0,-12.369l14.16,-0Zm-117.106,-0l0,12.288c0,16.195 -13.102,29.297 -29.297,29.297c-2.36,-0 -4.72,-0.244 -7.08,-0.814c5.127,-1.302 9.847,-3.988 13.591,-7.731c5.534,-5.452 8.626,-12.939 8.626,-20.671l0,-12.369l14.16,-0Z" style="fill:#fdd367;fill-rule:nonzero;"/><path d="M61.93,96.029l0,12.288c0,16.195 -13.102,29.297 -29.297,29.297c-2.36,-0 -4.72,-0.244 -7.08,-0.814c5.127,-1.302 9.847,-3.988 13.591,-7.731c5.534,-5.452 8.626,-12.939 8.626,-20.671l0,-12.369l14.16,-0Zm234.294,-0l-0,12.288c-0,16.195 -13.102,29.297 -29.297,29.297c-2.36,-0 -4.72,-0.244 -7.08,-0.814c5.127,-1.302 9.847,-3.988 13.591,-7.731c5.533,-5.452 8.626,-12.939 8.626,-20.671l-0,-12.369l14.16,-0Zm-117.188,-0l0,12.288c0,16.195 -13.102,29.297 -29.296,29.297c-2.36,-0 -4.72,-0.244 -7.08,-0.814c5.126,-1.302 9.847,-3.988 13.59,-7.731c5.534,-5.452 8.626,-12.939 8.626,-20.671l0,-12.369l14.16,-0Zm234.294,-0l0,12.288c0,16.195 -13.102,29.297 -29.297,29.297c-2.36,-0 -4.72,-0.244 -7.08,-0.814c5.127,-1.302 9.847,-3.988 13.591,-7.731c5.533,-5.452 8.626,-12.939 8.626,-20.671l-0,-12.369l14.16,-0Z" style="fill:#f96364;fill-rule:nonzero;"/><path d="M80.485,21.891l-18.555,74.138l-14.16,-0l18.555,-74.138l14.16,0Z" style="fill:#f96364;fill-rule:nonzero;"/><path d="M131.673,21.891l-11.23,74.138l-14.16,-0l11.23,-74.138l14.16,0Z" style="fill:#fdd367;fill-rule:nonzero;"/><path d="M182.78,21.891l-3.744,74.138l-14.16,-0l3.744,-74.138l14.16,0Z" style="fill:#f96364;fill-rule:nonzero;"/><path d="M237.63,96.029l-14.16,-0l-3.743,-74.138l14.16,0l3.743,74.138Z" style="fill:#fdd367;fill-rule:nonzero;"/><path d="M296.224,96.029l-14.16,-0l-11.149,-74.138l14.078,0l11.231,74.138Z" style="fill:#f96364;fill-rule:nonzero;"/><path d="M354.736,96.029l-14.16,-0l-18.555,-74.138l14.161,0l18.554,74.138Z" style="fill:#fdd367;fill-rule:nonzero;"/><path d="M413.33,96.029l-14.16,-0l-26.042,-74.138c8.464,0 16.032,5.371 18.88,13.347l21.322,60.791Z" style="fill:#f96364;fill-rule:nonzero;"/><path d="M414.225,352.132l-15.95,0l-0,-215.495c3.011,-1.546 5.778,-3.499 8.138,-5.859c6.022,-5.941 9.358,-13.997 9.277,-22.461l0,-12.288c0,-0.163 -0.081,-0.733 -0.163,-0.814l-21.321,-60.791c-3.174,-8.952 -11.638,-14.974 -21.159,-14.974l-329.59,-0c-9.521,-0 -17.985,6.022 -21.159,14.974l-21.321,60.791c-0,0.081 -0.082,0.651 -0.163,0.814l-0,12.288c-0,11.963 6.754,22.949 17.497,28.32l-0,215.495l-15.87,0c-1.383,0 -2.441,1.058 -2.441,2.442l0,15.95c0,14.73 11.963,26.693 26.774,26.774l363.2,0c14.73,0 26.693,-11.963 26.774,-26.774l0,-15.95c-0.081,-1.384 -1.139,-2.442 -2.523,-2.442Zm-3.336,-243.815c-0,14.811 -12.045,26.856 -26.856,26.856c-14.811,-0 -26.855,-12.045 -26.855,-26.856l-0,-9.847l53.711,0l-0,9.847Zm-387.614,243.734l-0,-213.461c6.185,1.872 12.695,1.872 18.88,-0.081l-0,192.22c-0,1.384 1.058,2.442 2.441,2.442l327.556,-0c1.383,-0 2.441,-1.058 2.441,-2.442l0,-192.139c6.104,1.954 12.695,1.954 18.88,0.082l0,213.46l-370.198,-0.081Zm241.699,4.964l-0,9.033c-0,2.604 -2.116,4.802 -4.801,4.802l-103.76,-0c-2.604,-0 -4.802,-2.116 -4.802,-4.802l0,-9.033l113.363,-0Zm-173.828,-216.96c12.777,-0.081 24.333,-7.731 29.297,-19.531c6.836,16.195 25.39,23.763 41.585,17.009c7.65,-3.256 13.753,-9.278 17.008,-17.009c6.836,16.195 25.391,23.763 41.586,17.009c7.649,-3.256 13.753,-9.278 17.008,-17.009c6.836,16.195 25.391,23.763 41.585,17.009c7.65,-3.256 13.754,-9.278 17.009,-17.009c6.836,16.195 25.391,23.763 41.585,17.009c7.65,-3.256 13.754,-9.278 17.009,-17.009c2.929,6.917 8.219,12.614 14.892,16.032l0,191.813l-322.754,0l0,-191.813c2.93,-1.546 5.697,-3.499 8.057,-5.859c2.93,-2.93 5.29,-6.348 6.917,-10.173c4.883,11.8 16.439,19.531 29.216,19.531Zm-26.774,-31.738l-0,-9.847l53.711,0l-0,9.847c-0,14.811 -12.045,26.856 -26.856,26.856c-14.892,-0 -26.855,-12.045 -26.855,-26.856Zm58.512,0l0,-9.847l53.711,0l0,9.847c0,14.811 -12.044,26.856 -26.855,26.856c-14.812,-0 -26.775,-12.045 -26.856,-26.856Zm117.188,0l-0,-9.847l53.711,0l-0,9.847c-0,14.811 -12.045,26.856 -26.856,26.856c-14.811,-0 -26.855,-12.045 -26.855,-26.856Zm58.593,0l0,-9.847l53.711,0l0,9.847c0,14.811 -12.044,26.856 -26.855,26.856c-14.893,-0 -26.856,-12.045 -26.856,-26.856Zm74.463,-83.984c7.406,-0 14.079,4.72 16.52,11.718l20.264,57.536l-53.223,0l-17.415,-69.254l33.854,-0Zm-38.899,-0l17.415,69.254l-53.386,0l-10.416,-69.254l46.387,-0Zm-51.27,-0l10.417,69.254l-53.386,0l-3.499,-69.254l46.468,-0Zm-97.9,-0l46.468,-0l3.499,69.254l-53.467,0l3.5,-69.254Zm-3.581,74.137l53.711,0l-0,9.847c-0,14.811 -12.044,26.856 -26.856,26.856c-14.811,-0 -26.855,-12.045 -26.855,-26.856l-0,-9.847Zm-47.77,-74.137l46.468,-0l-3.5,69.254l-53.385,0l10.417,-69.254Zm-51.27,-0l46.387,-0l-10.498,69.254l-53.304,0l17.415,-69.254Zm-55.42,11.718c2.442,-6.998 9.115,-11.718 16.52,-11.718l33.855,-0l-17.416,69.254l-53.222,0l20.263,-57.536Zm-21.24,72.266l-0,-9.847l53.711,0l-0,9.847c-0,14.811 -12.044,26.856 -26.856,26.856c-14.811,-0 -26.855,-12.045 -26.855,-26.856Zm406.006,262.126c-0,12.044 -9.766,21.891 -21.891,21.891l-363.119,-0c-12.126,-0 -21.891,-9.766 -21.891,-21.891l-0,-13.509l141.927,-0l-0,9.033c-0,5.29 4.313,9.603 9.684,9.684l103.841,0c5.29,0 9.603,-4.313 9.685,-9.684l-0,-9.033l141.764,-0l-0,13.509Z" style="fill:#333;fill-rule:nonzero;"/></g></svg>