<?xml version="1.0" encoding="UTF-8" standalone="no"?><!DOCTYPE svg PUBLIC "-//W3C//DTD SVG 1.1//EN" "http://www.w3.org/Graphics/SVG/1.1/DTD/svg11.dtd"><svg width="100%" height="100%" viewBox="0 0 210 161" version="1.1" xmlns="http://www.w3.org/2000/svg" xmlns:xlink="http://www.w3.org/1999/xlink" xml:space="preserve" xmlns:serif="http://www.serif.com/" style="fill-rule:evenodd;clip-rule:evenodd;stroke-linecap:round;stroke-linejoin:round;stroke-miterlimit:1.5;"><g><path d="M209.163,11.705c-0,-6.167 -5.007,-11.174 -11.174,-11.174l-186.284,0c-6.167,0 -11.174,5.007 -11.174,11.174l0,111.013c0,6.167 5.007,11.174 11.174,11.174l186.284,-0c6.167,-0 11.174,-5.007 11.174,-11.174l-0,-111.013Z" style="fill:#fefffe;stroke:#000;stroke-width:1.06px;"/><path d="M209.163,9.66c-0,-5.039 -4.091,-9.129 -9.129,-9.129l-190.374,0c-5.039,0 -9.129,4.09 -9.129,9.129l0,99.823l208.632,-0l-0,-99.823Z" style="fill:#ffcecf;stroke:#000;stroke-width:1.06px;"/><path d="M55.551,51.738l64.471,0" style="fill:none;stroke:#000;stroke-width:1.06px;"/><path d="M45.533,43.025l-10.299,0l-0,26.559l59.057,-0l-0,5.575" style="fill:none;stroke:#000;stroke-width:1.06px;"/><rect x="44.291" y="26.958" width="100" height="32.134" style="fill:#ffd400;stroke:#000;stroke-width:1.06px;"/><path d="M44.291,51.738l75.731,0" style="fill:none;stroke:#000;stroke-width:1.06px;"/><path d="M0.531,109.483l208.632,-0" style="fill:none;stroke:#000;stroke-width:1.06px;"/><g><path d="M87.786,133.892l0,26.395" style="fill:none;stroke:#000;stroke-width:1.06px;"/><path d="M122.195,133.892l0,26.395" style="fill:none;stroke:#000;stroke-width:1.06px;"/><path d="M79.441,160.287l50.812,0" style="fill:none;stroke:#000;stroke-width:1.16px;"/></g><path d="M87.521,80.93l0,30.547c4.346,5.339 8.691,5.339 13.036,0l0,-30.915l-13.036,0.368Z" style="fill:#4b00ff;stroke:#000;stroke-width:1.06px;"/><rect x="82.194" y="75.159" width="24.193" height="5.403" style="fill:#4b00ff;stroke:#000;stroke-width:1.06px;"/><path d="M126.724,51.738l17.566,0" style="fill:none;stroke:#000;stroke-width:1.06px;"/><path d="M44.291,72.414l-0,19.21c-0.014,7.426 9.525,6.79 9.511,0l0,-7.848c3.016,0.874 4.59,-0.623 4.424,-4.981l-0,-6.381" style="fill:#ffd400;stroke:#000;stroke-width:1.06px;"/><path d="M135.507,67.211l0,22.595c0.014,8.734 -9.525,7.986 -9.511,0l-0,-9.231c-3.016,1.028 -4.59,-0.732 -4.424,-5.858l0,-7.506" style="fill:#ffd400;stroke:#000;stroke-width:1.06px;"/></g></svg>